<svg xmlns="http://www.w3.org/2000/svg" width="25" height="25" viewBox="0 0 25 25">
  <g id="first-step-c" transform="translate(-2761 -4957)">
    <rect id="Rectangle_86" data-name="Rectangle 86" width="25" height="25" transform="translate(2761 4957)" fill="#ffe9ab" opacity="0"/>
    <g id="first-step-c-2" data-name="first-step-c" transform="translate(2763 4958)">
      <path id="Path_1368" data-name="Path 1368" d="M21,17.5l-3.476-9.51V2.425a.452.452,0,0,0-.452-.452H15.329L14.717.3a.453.453,0,0,0-.58-.27L8.814,1.973H2.341a.452.452,0,0,0-.452.452V4.5L.3,5.086a.452.452,0,0,0-.27.58l1.861,5.091v9.982a.452.452,0,0,0,.452.452H5.7l.612,1.676a.452.452,0,0,0,.58.27l5.322-1.945h4.859a.452.452,0,0,0,.452-.452V19.25l3.206-1.172A.452.452,0,0,0,21,17.5ZM1.888,8.121,1.033,5.78l.856-.313ZM14.022,1.033l.344.94H11.45Zm-7.014,21.1-.344-.94H9.581Zm9.615-1.845H2.793V2.878h13.83Zm.9-2V10.625L20,17.384Z" transform="translate(0 0)" fill="#febe07"/>
      <path id="Path_1369" data-name="Path 1369" d="M12.971,17.429a.452.452,0,0,0-.64,0l-1.047,1.047-.648-.265a.452.452,0,0,0-.342.838l.927.379a.452.452,0,0,0,.491-.1l1.26-1.26A.452.452,0,0,0,12.971,17.429Z" transform="translate(-3.996 -6.903)" fill="#febe07"/>
      <path id="Path_1370" data-name="Path 1370" d="M17.777,22.277l-3.1-3.1a.453.453,0,0,0-.64,0l-.366.366-.632-.632a3.654,3.654,0,1,0-.64.64l.632.632-.366.367a.453.453,0,0,0,0,.64l3.1,3.1a.452.452,0,0,0,.64,0l1.373-1.373A.453.453,0,0,0,17.777,22.277Zm-7.616-2.86A2.744,2.744,0,1,1,12.9,16.674,2.747,2.747,0,0,1,10.161,19.418Zm5.923,3.912-2.459-2.46.733-.733,2.459,2.46Z" transform="translate(-2.599 -5.199)" fill="#febe07"/>
      <path id="Path_1371" data-name="Path 1371" d="M23.355,7.579a.469.469,0,0,0-.026-.085.458.458,0,0,0-.042-.078.434.434,0,0,0-.056-.069.461.461,0,0,0-.069-.057.448.448,0,0,0-.078-.042A.457.457,0,0,0,23,7.223a.445.445,0,0,0-.176,0,.473.473,0,0,0-.085.026.456.456,0,0,0-.2.167.456.456,0,0,0-.041.078.438.438,0,0,0-.026.085.436.436,0,0,0,0,.176.421.421,0,0,0,.026.085.444.444,0,0,0,.041.078.458.458,0,0,0,.057.069.432.432,0,0,0,.069.056.462.462,0,0,0,.078.042.474.474,0,0,0,.085.026.434.434,0,0,0,.176,0,.457.457,0,0,0,.085-.026.448.448,0,0,0,.078-.042.441.441,0,0,0,.125-.125.445.445,0,0,0,.042-.078.443.443,0,0,0,.026-.261Z" transform="translate(-8.964 -2.879)" fill="#febe07"/>
      <path id="Path_1372" data-name="Path 1372" d="M15.714,7.215H8.8a.452.452,0,0,0,0,.9h6.914a.452.452,0,1,0,0-.9Z" transform="translate(-3.332 -2.879)" fill="#febe07"/>
      <path id="Path_1373" data-name="Path 1373" d="M9.244,10.334a.455.455,0,0,0-.026-.085.446.446,0,0,0-.042-.078.44.44,0,0,0-.125-.125A.446.446,0,0,0,8.973,10a.425.425,0,0,0-.085-.026A.451.451,0,0,0,8.627,10a.458.458,0,0,0-.078.042.431.431,0,0,0-.069.056.461.461,0,0,0-.057.069.446.446,0,0,0-.042.078.456.456,0,0,0-.026.085.457.457,0,0,0,0,.176.457.457,0,0,0,.026.085.448.448,0,0,0,.042.078.461.461,0,0,0,.057.069.434.434,0,0,0,.069.056.458.458,0,0,0,.078.042.444.444,0,0,0,.085.026.453.453,0,0,0,.089.009.445.445,0,0,0,.088-.009.425.425,0,0,0,.085-.026.446.446,0,0,0,.078-.042.44.44,0,0,0,.125-.125.448.448,0,0,0,.042-.078.457.457,0,0,0,.026-.085.434.434,0,0,0,0-.176Z" transform="translate(-3.332 -3.979)" fill="#febe07"/>
      <path id="Path_1374" data-name="Path 1374" d="M18.319,9.97H11.405a.452.452,0,0,0,0,.9h6.914a.452.452,0,0,0,0-.9Z" transform="translate(-4.371 -3.979)" fill="#febe07"/>
    </g>
  </g>
</svg>
