<svg xmlns="http://www.w3.org/2000/svg" width="375.813" height="109.311" viewBox="0 0 375.813 109.311">
  <g id="Group_454" data-name="Group 454" transform="translate(-398.065 -1122.696)">
    <g id="Group_53" data-name="Group 53" transform="translate(398.066 1122.696)">
      <g id="Group_1670" data-name="Group 1670" transform="translate(0)">
        <path id="Path_1245" data-name="Path 1245" d="M497.144,1146.965v3.9H429.807a49.243,49.243,0,0,0-3.416,7.319h102.47a55.385,55.385,0,0,0-12.2-19.03H465.915v-3.9H512.27a54.526,54.526,0,0,0-77.1,8.3,8.755,8.755,0,0,0-2.44,3.416Z" transform="translate(-422.975 -1123)" fill="#003572"/>
        <path id="Path_1246" data-name="Path 1246" d="M459.174,1372.081v-3.9h66.849a49.263,49.263,0,0,0,3.415-7.32H427.945a50.206,50.206,0,0,0,12.686,19.03h50.747v3.9H445.023c23.91,18.542,58.066,14.639,76.608-9.271.488-.976,1.464-1.464,1.952-2.44Z" transform="translate(-424.041 -1286.147)" fill="#003572"/>
        <path id="Path_1247" data-name="Path 1247" d="M415.517,1264.133v3.9h74.168v3.9H416l1.464,7.319h105.4a54.982,54.982,0,0,0,2.44-15.615v-3.416H450.649v-3.9H524.33l-1.464-7.319h-105.4A53.672,53.672,0,0,0,415.517,1264.133Z" transform="translate(-415.517 -1209.428)" fill="#c1c1c0"/>
      </g>
    </g>
    <g id="Group_1671" data-name="Group 1671" transform="translate(537.43 1138.102)">
      <g id="Group_57" data-name="Group 57" transform="translate(0.001 0)">
        <g id="Group_54" data-name="Group 54" style="isolation: isolate">
          <path id="Path_562" data-name="Path 562" d="M865.56,1203.71v18.844h-6.348v-48.136h17.754q7.9,0,12.381,4.034a13.674,13.674,0,0,1,4.48,10.678q0,7.009-4.381,10.794T876.9,1203.71Zm0-5.19h11.406q5.092,0,7.8-2.4t2.711-6.938a9.071,9.071,0,0,0-2.711-6.889,10.683,10.683,0,0,0-7.438-2.682H865.56Z" transform="translate(-859.212 -1174.419)" fill="#003572"/>
          <path id="Path_563" data-name="Path 563" d="M1009.44,1217.828a18.387,18.387,0,0,0-3.008-.231q-6.018,0-8.166,5.124v25.39h-6.117V1212.34H998.1l.1,4.133a9.524,9.524,0,0,1,8.53-4.794,6.249,6.249,0,0,1,2.711.463Z" transform="translate(-950.393 -1199.975)" fill="#003572"/>
        </g>
        <g id="Group_55" data-name="Group 55" transform="translate(63.045 11.703)" style="isolation: isolate">
          <path id="Path_564" data-name="Path 564" d="M1059.93,1229.9a21.135,21.135,0,0,1,2.066-9.455,15.415,15.415,0,0,1,5.753-6.48,15.66,15.66,0,0,1,8.414-2.281,15.087,15.087,0,0,1,11.819,5.058q4.513,5.058,4.513,13.456v.43a21.312,21.312,0,0,1-2,9.373,15.19,15.19,0,0,1-5.719,6.463,15.84,15.84,0,0,1-8.546,2.314,15.048,15.048,0,0,1-11.786-5.058q-4.512-5.058-4.513-13.39Zm6.149.728q0,5.951,2.761,9.554a9.355,9.355,0,0,0,14.795-.05q2.744-3.652,2.744-10.232a15.279,15.279,0,0,0-2.794-9.538,8.883,8.883,0,0,0-7.422-3.653,8.784,8.784,0,0,0-7.307,3.6Q1066.08,1223.912,1066.079,1230.623Z" transform="translate(-1059.93 -1211.679)" fill="#fbad00"/>
        </g>
        <g id="Group_56" data-name="Group 56" transform="translate(101.693 11.703)" style="isolation: isolate">
          <path id="Path_565" data-name="Path 565" d="M1198.907,1243.781a8.811,8.811,0,0,0,5.719-1.983,6.978,6.978,0,0,0,2.711-4.959h5.786a11.093,11.093,0,0,1-2.116,5.852,13.938,13.938,0,0,1-5.207,4.43,15.025,15.025,0,0,1-6.893,1.653q-7.307,0-11.621-4.876t-4.315-13.34v-1.025a21.533,21.533,0,0,1,1.917-9.29,14.6,14.6,0,0,1,5.5-6.315,15.638,15.638,0,0,1,8.48-2.248,14.349,14.349,0,0,1,10,3.6,12.879,12.879,0,0,1,4.248,9.356h-5.786a8.43,8.43,0,0,0-2.628-5.7,8.178,8.178,0,0,0-5.835-2.231,8.562,8.562,0,0,0-7.224,3.356q-2.562,3.356-2.562,9.7v1.157q0,6.183,2.546,9.521A8.6,8.6,0,0,0,1198.907,1243.781Z" transform="translate(-1182.972 -1211.679)" fill="#003572"/>
          <path id="Path_566" data-name="Path 566" d="M1312.309,1248.773a15.627,15.627,0,0,1-11.836-4.777q-4.562-4.777-4.562-12.778v-1.124a21.467,21.467,0,0,1,2.033-9.5,15.862,15.862,0,0,1,5.687-6.546,14.3,14.3,0,0,1,7.918-2.364q6.976,0,10.844,4.6t3.868,13.158v2.546h-24.233a12.71,12.71,0,0,0,3.091,8.546,9.714,9.714,0,0,0,7.521,3.256,10.649,10.649,0,0,0,5.488-1.322,13.782,13.782,0,0,0,3.934-3.5l3.736,2.909Q1321.3,1248.773,1312.309,1248.773Zm-.76-32.069a8.157,8.157,0,0,0-6.215,2.695,13.1,13.1,0,0,0-3.108,7.554h17.919v-.463a11.651,11.651,0,0,0-2.512-7.224A7.683,7.683,0,0,0,1311.549,1216.7Z" transform="translate(-1260.437 -1211.679)" fill="#003572"/>
          <path id="Path_567" data-name="Path 567" d="M1432.638,1238.623a4.5,4.5,0,0,0-1.868-3.852,18,18,0,0,0-6.513-2.364,30.78,30.78,0,0,1-7.372-2.38,10.482,10.482,0,0,1-4.033-3.306,7.9,7.9,0,0,1-1.306-4.563,9.282,9.282,0,0,1,3.719-7.438,14.528,14.528,0,0,1,9.5-3.042,14.951,14.951,0,0,1,9.869,3.141,9.977,9.977,0,0,1,3.785,8.034h-6.149a5.521,5.521,0,0,0-2.132-4.331,7.99,7.99,0,0,0-5.373-1.819,8.362,8.362,0,0,0-5.223,1.455,4.579,4.579,0,0,0-1.885,3.8,3.709,3.709,0,0,0,1.752,3.339,21.542,21.542,0,0,0,6.331,2.149,33.041,33.041,0,0,1,7.423,2.447,10.834,10.834,0,0,1,4.215,3.422,8.417,8.417,0,0,1,1.372,4.876,9.156,9.156,0,0,1-3.835,7.687,16.085,16.085,0,0,1-9.951,2.893,18.011,18.011,0,0,1-7.6-1.521,12.359,12.359,0,0,1-5.174-4.248,10.235,10.235,0,0,1-1.868-5.9h6.116a6.33,6.33,0,0,0,2.463,4.876,9.555,9.555,0,0,0,6.067,1.8,9.86,9.86,0,0,0,5.57-1.4A4.318,4.318,0,0,0,1432.638,1238.623Z" transform="translate(-1338.911 -1211.679)" fill="#003572"/>
          <path id="Path_568" data-name="Path 568" d="M1543.786,1238.623a4.5,4.5,0,0,0-1.868-3.852,18,18,0,0,0-6.513-2.364,30.784,30.784,0,0,1-7.372-2.38,10.479,10.479,0,0,1-4.033-3.306,7.9,7.9,0,0,1-1.306-4.563,9.28,9.28,0,0,1,3.719-7.438,14.526,14.526,0,0,1,9.5-3.042,14.951,14.951,0,0,1,9.869,3.141,9.977,9.977,0,0,1,3.785,8.034h-6.149a5.523,5.523,0,0,0-2.133-4.331,7.991,7.991,0,0,0-5.373-1.819,8.363,8.363,0,0,0-5.224,1.455,4.579,4.579,0,0,0-1.884,3.8,3.709,3.709,0,0,0,1.753,3.339,21.53,21.53,0,0,0,6.331,2.149,33.036,33.036,0,0,1,7.422,2.447,10.832,10.832,0,0,1,4.215,3.422,8.416,8.416,0,0,1,1.372,4.876,9.157,9.157,0,0,1-3.835,7.687,16.087,16.087,0,0,1-9.951,2.893,18.011,18.011,0,0,1-7.6-1.521,12.358,12.358,0,0,1-5.174-4.248,10.237,10.237,0,0,1-1.868-5.9h6.116a6.331,6.331,0,0,0,2.463,4.876,9.553,9.553,0,0,0,6.066,1.8,9.862,9.862,0,0,0,5.571-1.4A4.318,4.318,0,0,0,1543.786,1238.623Z" transform="translate(-1415.148 -1211.679)" fill="#003572"/>
        </g>
      </g>
      <path id="Path_7468" data-name="Path 7468" d="M11.219-9.183A4.667,4.667,0,0,1,9.734-6.078,4.868,4.868,0,0,1,6.41-4.984,4.47,4.47,0,0,1,2.807-6.6a6.484,6.484,0,0,1-1.355-4.313v-1.22a7.227,7.227,0,0,1,.632-3.11,4.718,4.718,0,0,1,1.79-2.06,4.985,4.985,0,0,1,2.683-.719A4.584,4.584,0,0,1,9.8-16.889a4.723,4.723,0,0,1,1.42,3.123H9.538a3.645,3.645,0,0,0-.945-2.2,2.86,2.86,0,0,0-2.034-.682,2.993,2.993,0,0,0-2.513,1.186,5.444,5.444,0,0,0-.91,3.374v1.23A5.6,5.6,0,0,0,4-7.573,2.787,2.787,0,0,0,6.41-6.352a3.219,3.219,0,0,0,2.139-.632,3.505,3.505,0,0,0,.989-2.2Zm14.27-1.908a7.847,7.847,0,0,1-.627,3.254,4.751,4.751,0,0,1-1.777,2.121,4.89,4.89,0,0,1-2.683.732,4.848,4.848,0,0,1-2.657-.736,4.865,4.865,0,0,1-1.8-2.1,7.529,7.529,0,0,1-.658-3.158v-.915a7.754,7.754,0,0,1,.636-3.232,4.848,4.848,0,0,1,1.8-2.148,4.827,4.827,0,0,1,2.662-.745,4.917,4.917,0,0,1,2.688.736,4.743,4.743,0,0,1,1.79,2.134,7.885,7.885,0,0,1,.627,3.254Zm-1.664-.819a5.687,5.687,0,0,0-.906-3.463,2.989,2.989,0,0,0-2.535-1.207,2.956,2.956,0,0,0-2.5,1.207,5.571,5.571,0,0,0-.937,3.35v.932a5.7,5.7,0,0,0,.919,3.437A2.969,2.969,0,0,0,20.4-6.4a2.957,2.957,0,0,0,2.509-1.18,5.664,5.664,0,0,0,.915-3.385ZM39.978-5.158H38.3L31.91-14.933v9.775H30.229V-17.843H31.91l6.4,9.819v-9.819h1.664Zm14.95,0H53.246L46.86-14.933v9.775H45.179V-17.843H46.86l6.4,9.819v-9.819h1.664ZM67.3-11.022H61.8v4.5h6.386v1.368H60.129V-17.843H68.1v1.368H61.8v4.086h5.5ZM81.831-9.183a4.667,4.667,0,0,1-1.485,3.106,4.868,4.868,0,0,1-3.324,1.093,4.47,4.47,0,0,1-3.6-1.612,6.484,6.484,0,0,1-1.355-4.313v-1.22a7.227,7.227,0,0,1,.632-3.11,4.718,4.718,0,0,1,1.79-2.06,4.985,4.985,0,0,1,2.683-.719,4.584,4.584,0,0,1,3.241,1.128,4.723,4.723,0,0,1,1.42,3.123H80.149a3.645,3.645,0,0,0-.945-2.2,2.86,2.86,0,0,0-2.034-.682,2.993,2.993,0,0,0-2.513,1.186,5.444,5.444,0,0,0-.91,3.374v1.23a5.6,5.6,0,0,0,.863,3.287,2.787,2.787,0,0,0,2.413,1.221,3.219,3.219,0,0,0,2.139-.632,3.505,3.505,0,0,0,.989-2.2Zm13.025-7.292H90.778V-5.158H89.114V-16.476H85.046v-1.368h9.81Zm5.907,11.317H99.09V-17.843h1.673Zm15.037,0h-1.681l-6.386-9.775v9.775h-1.681V-17.843h1.681l6.4,9.819v-9.819H115.8Zm14.567-1.664a3.864,3.864,0,0,1-1.8,1.381,7.267,7.267,0,0,1-2.688.457,5.212,5.212,0,0,1-2.753-.727,4.847,4.847,0,0,1-1.86-2.069,7.146,7.146,0,0,1-.675-3.11V-12a6.671,6.671,0,0,1,1.337-4.443,4.66,4.66,0,0,1,3.759-1.577,4.813,4.813,0,0,1,3.2,1.015,4.422,4.422,0,0,1,1.481,2.879h-1.673a2.766,2.766,0,0,0-3-2.527,2.961,2.961,0,0,0-2.548,1.182,5.769,5.769,0,0,0-.876,3.422v1.038a5.407,5.407,0,0,0,.976,3.4,3.163,3.163,0,0,0,2.64,1.26,5.83,5.83,0,0,0,1.647-.209,2.546,2.546,0,0,0,1.167-.7v-2.842h-2.936v-1.368h4.6Zm20.081-9.653H146.37V-5.158h-1.664V-16.476h-4.069v-1.368h9.81ZM164.309-5.158h-1.681v-5.863h-6.395v5.863H154.56V-17.843h1.673v5.454h6.395v-5.454h1.681Zm12.371-5.863h-5.5v4.5h6.386v1.368H169.51V-17.843h7.972v1.368h-6.3v4.086h5.5Zm11.848,5.863V-17.843h3.581a5.764,5.764,0,0,1,2.927.732A4.949,4.949,0,0,1,197-15.029a6.777,6.777,0,0,1,.7,3.1v.81a6.8,6.8,0,0,1-.693,3.145A4.872,4.872,0,0,1,195.032-5.9a6.131,6.131,0,0,1-2.993.741ZM190.2-16.476v9.949h1.76a3.829,3.829,0,0,0,3.01-1.2,4.971,4.971,0,0,0,1.076-3.427V-11.9a5.05,5.05,0,0,0-1.015-3.361,3.612,3.612,0,0,0-2.879-1.216Zm22.016,5.384a7.847,7.847,0,0,1-.627,3.254,4.751,4.751,0,0,1-1.777,2.121,4.89,4.89,0,0,1-2.683.732,4.848,4.848,0,0,1-2.657-.736,4.865,4.865,0,0,1-1.8-2.1,7.529,7.529,0,0,1-.658-3.158v-.915a7.754,7.754,0,0,1,.636-3.232,4.848,4.848,0,0,1,1.8-2.148,4.827,4.827,0,0,1,2.662-.745,4.917,4.917,0,0,1,2.688.736,4.742,4.742,0,0,1,1.79,2.134,7.885,7.885,0,0,1,.627,3.254Zm-1.664-.819a5.688,5.688,0,0,0-.906-3.463,2.988,2.988,0,0,0-2.535-1.207,2.956,2.956,0,0,0-2.5,1.207,5.571,5.571,0,0,0-.937,3.35v.932a5.7,5.7,0,0,0,.919,3.437,2.969,2.969,0,0,0,2.531,1.25,2.957,2.957,0,0,0,2.509-1.18,5.664,5.664,0,0,0,.915-3.385Zm14.933-4.565h-4.077V-5.158h-1.664V-16.476h-4.069v-1.368h9.81Zm7.71,5.663a7.865,7.865,0,0,1-3.132-1.52,2.9,2.9,0,0,1-.98-2.226,3.068,3.068,0,0,1,1.2-2.479,4.761,4.761,0,0,1,3.115-.98,5.2,5.2,0,0,1,2.33.505,3.832,3.832,0,0,1,1.586,1.394,3.565,3.565,0,0,1,.562,1.943h-1.681a2.319,2.319,0,0,0-.732-1.814,2.976,2.976,0,0,0-2.065-.66,3.047,3.047,0,0,0-1.93.546,1.82,1.82,0,0,0-.693,1.514,1.637,1.637,0,0,0,.658,1.314,6.452,6.452,0,0,0,2.239.982,10.388,10.388,0,0,1,2.474.981,3.755,3.755,0,0,1,1.324,1.25,3.191,3.191,0,0,1,.431,1.681,2.964,2.964,0,0,1-1.2,2.47,5.126,5.126,0,0,1-3.215.928,5.962,5.962,0,0,1-2.439-.5A4.105,4.105,0,0,1,229.3-6.857a3.349,3.349,0,0,1-.614-1.978h1.681a2.185,2.185,0,0,0,.849,1.816,3.577,3.577,0,0,0,2.27.666,3.288,3.288,0,0,0,2.03-.54,1.755,1.755,0,0,0,.706-1.472,1.722,1.722,0,0,0-.653-1.442A7.533,7.533,0,0,0,233.2-10.813Z" transform="translate(-1.453 83.717)" fill="#7f8284"/>
    </g>
  </g>
</svg>
