<svg id="Layer_1" data-name="Layer 1" xmlns="http://www.w3.org/2000/svg" viewBox="0 0 48 48"><defs><style>.cls-1,.cls-3{fill:#ffd500;}.cls-2{fill:none;}.cls-2,.cls-3{stroke:#1d1d1b;stroke-linejoin:round;stroke-width:0.96px;}.cls-4{fill:#1d1d1b;}</style></defs><title>SAIB#4279 Customer Experience - Mortgage Icons v2</title><rect class="cls-1" width="48" height="48"/><path class="cls-2" d="M33.75,25.33v-14a3.82,3.82,0,0,0-3.83-3.82h-21a3.83,3.83,0,0,1,3.83,3.82V34.25a3.83,3.83,0,0,0,3.82,3.83h5.74"/><line class="cls-3" x1="15.9" y1="10.67" x2="27.37" y2="10.67"/><line class="cls-3" x1="24.82" y1="18.32" x2="30.56" y2="18.32"/><line class="cls-3" x1="15.9" y1="18.32" x2="23.55" y2="18.32"/><line class="cls-3" x1="15.9" y1="27.88" x2="21.64" y2="27.88"/><line class="cls-3" x1="15.9" y1="21.51" x2="19.73" y2="21.51"/><line class="cls-3" x1="15.9" y1="31.07" x2="21" y2="31.07"/><line class="cls-3" x1="15.9" y1="25.33" x2="17.81" y2="25.33"/><line class="cls-3" x1="19.09" y1="24.69" x2="24.19" y2="24.69"/><line class="cls-3" x1="21" y1="21.51" x2="26.74" y2="21.51"/><line class="cls-3" x1="28.01" y1="21.51" x2="30.56" y2="21.51"/><line class="cls-3" x1="15.9" y1="13.22" x2="21" y2="13.22"/><line class="cls-3" x1="25.46" y1="24.69" x2="30.56" y2="24.69"/><path d="M34.85,32.84a6.18,6.18,0,0,1-.17,1.36,5.87,5.87,0,0,1-1.11,2.32c-.06.06,0,.1,0,.16l3.63,3.65.75.76a.62.62,0,0,1,.14.74.65.65,0,0,1-.64.35.68.68,0,0,1-.4-.21l-.72-.73-1.47-1.48c-.5-.49-1-1-1.49-1.49l-.7-.71c-.06-.05-.09-.05-.15,0a6.19,6.19,0,0,1-1.41.82,6.46,6.46,0,0,1-1.16.34,6.12,6.12,0,0,1-1.21.11,6.54,6.54,0,0,1-1.32-.17A5.93,5.93,0,0,1,25,37.4a5.62,5.62,0,0,1-1.41-1.76,7.22,7.22,0,0,1-.31-.69,9.13,9.13,0,0,1-.27-.89,5.87,5.87,0,0,1-.12-1.56,6.41,6.41,0,0,1,.22-1.31,6.29,6.29,0,0,1,.65-1.48A6,6,0,0,1,25.33,28a5.42,5.42,0,0,1,1.34-.72,6.86,6.86,0,0,1,.91-.28,5.53,5.53,0,0,1,1.86-.1,6,6,0,0,1,1.47.33,5.88,5.88,0,0,1,1.57.87A6,6,0,0,1,34.12,30a5.12,5.12,0,0,1,.53,1.36c.05.25.11.49.14.74S34.83,32.59,34.85,32.84Zm-6,4.72a4.73,4.73,0,0,0,0-9.46,4.51,4.51,0,0,0-3.37,1.39,4.79,4.79,0,0,0-1.25,4.62,5.64,5.64,0,0,0,1.21,2A4.71,4.71,0,0,0,28.83,37.56Z"/><path class="cls-4" d="M33,32.76a.62.62,0,0,1-.26.58.6.6,0,0,1-.63.06.58.58,0,0,1-.37-.54,2.88,2.88,0,0,0-1.3-2.43A2.77,2.77,0,0,0,28.87,30a.64.64,0,0,1-.63-.43.63.63,0,0,1,.53-.83,3.3,3.3,0,0,1,.94.09,4.16,4.16,0,0,1,2.58,1.75,4.38,4.38,0,0,1,.53,1.14A4.53,4.53,0,0,1,33,32.76Z"/></svg>