<svg id="Layer_1" data-name="Layer 1" xmlns="http://www.w3.org/2000/svg" viewBox="0 0 48 48"><defs><style>.cls-1{fill:#ffd500;}</style></defs><title>SAIB#4279 Customer Experience - Mortgage Icons v2</title><polygon class="cls-1" points="27.86 4.43 28.21 11.37 35.47 11.81 27.86 4.43"/><path class="cls-1" d="M26.07,32.41c.43-.51.82-1,1.25-1.46a6.39,6.39,0,0,1,2-1.54,1.63,1.63,0,0,1,.37-.13c.07,0,.14,0,.22,0a.52.52,0,0,1-.07.2c-.31.35-.65.68-1,1a17.63,17.63,0,0,0-2.14,3.26,1.59,1.59,0,0,1-.18.27.47.47,0,0,1-.81,0c-.33-.46-.62-.95-.93-1.42a6,6,0,0,0-1.51-1.43,1.24,1.24,0,0,1-.18-.22.84.84,0,0,1,.29-.1,2.87,2.87,0,0,1,2.32,1.18Z"/><path d="M20.57,37.76H11.22a.54.54,0,0,1-.58-.58c0-.54,0-1.1,0-1.64V4.4a1.38,1.38,0,0,1,.08-.48.4.4,0,0,1,.44-.3H27.82a1,1,0,0,1,.8.32c1.44,1.39,2.9,2.79,4.33,4.15L36,11a.94.94,0,0,1,.27.68c0,.35,0,.69,0,1.06V37.14a.55.55,0,0,1-.33.58.59.59,0,0,1-.17,0H32.54a1.11,1.11,0,0,1-.07-.16,2.29,2.29,0,0,1-.1-.23l.09-.26.15-.41h1.67a.93.93,0,0,0,.72-.23,1,1,0,0,0,.22-.72v-21c0-.31,0-.62,0-.93s0-.67,0-1a.79.79,0,0,0-.76-.75H28.25c-.54,0-.71-.17-.71-.71V5.66a1,1,0,0,0-.22-.74,1,1,0,0,0-.75-.23H12.69a1,1,0,0,0-.76.25,1,1,0,0,0-.21.75V20.4h0V35.79c0,.62.3.91.93.91h7.82c.07.21.17.41.25.59l0,0s0,.06,0,.07h0C20.7,37.49,20.63,37.62,20.57,37.76Zm8-27.65a.82.82,0,0,0,.88.87h0l3.42-.05,1.46.05L28.52,5.37S28.62,9.43,28.61,10.11Z"/><path class="cls-1" d="M26.56,37.83a1,1,0,0,1-.55-.21l-.25-.18a2.38,2.38,0,0,0-1.25-.62,9.39,9.39,0,0,0-1.05,0h-.14a.74.74,0,0,1-.7-.49l-.27-.84a2.46,2.46,0,0,0-1-1.22l-.09-.06a2.8,2.8,0,0,1-.53-.47c-.13-.16-.21-.39,0-.93a2.67,2.67,0,0,0,.21-1.66c-.05-.21-.12-.41-.18-.6s-.08-.24-.11-.35a.77.77,0,0,1,.28-.87l.12-.09.25-.17a2.61,2.61,0,0,0,1.22-1.75,1.28,1.28,0,0,1,.28-.61.82.82,0,0,1,.59-.24h.55a2.38,2.38,0,0,0,1.87-.68l.25-.18a.83.83,0,0,1,.5-.19.92.92,0,0,1,.53.2h0l.05,0a3,3,0,0,0,2.18.82l.41,0h.06a.69.69,0,0,1,.62.36,2.91,2.91,0,0,1,.25.67A2.46,2.46,0,0,0,31.73,29l.09.07a1.42,1.42,0,0,1,.6.55.85.85,0,0,1,0,.65,5.8,5.8,0,0,1-.21.63,2.27,2.27,0,0,0,0,1.63,4.25,4.25,0,0,1,.21.87c0,.08,0,.29-.31.56a6.08,6.08,0,0,1-.54.39,2.31,2.31,0,0,0-1,1.37,4.32,4.32,0,0,1-.23.66.68.68,0,0,1-.66.44h-.33l-.38,0a3.25,3.25,0,0,0-2,.86l0,0A.88.88,0,0,1,26.56,37.83Zm0-11.69h-.34a5.4,5.4,0,0,0-3.67,1.72,5.53,5.53,0,0,0-1.47,3.94,5.49,5.49,0,0,0,5.47,5.26h.09A5.46,5.46,0,0,0,32,31.45a5.36,5.36,0,0,0-1.76-3.86A5.29,5.29,0,0,0,26.57,26.14Z"/><path d="M23,23l-6.88,0a.52.52,0,0,1-.52-.43.49.49,0,0,1,.24-.54,1.09,1.09,0,0,1,.47-.09H30.71a.54.54,0,0,1,.59.35.5.5,0,0,1,0,.46.53.53,0,0,1-.4.26H24.25l-1.16,0Z"/><path d="M30.8,17.38H16.16a.45.45,0,0,1-.5-.3.52.52,0,0,1,0-.5.56.56,0,0,1,.46-.26H30.49a1.85,1.85,0,0,1,.49.05.51.51,0,0,1,.37.52.54.54,0,0,1-.55.5Z"/><path class="cls-1" d="M24.55,43.65l-1.1-.74a1,1,0,0,0-.55-.18,1.09,1.09,0,0,0-.39.08l-2.05.79.34-.81c.11-.27.22-.53.34-.79l.31-.73c.39-.94.8-1.9,1.2-2.85a3.11,3.11,0,0,0,.9.13l.34,0H24a1.05,1.05,0,0,1,.73.32,3.49,3.49,0,0,0,.32.25l-.09.69c-.08.71-.16,1.39-.24,2.07-.06.49-.11,1-.16,1.47Z"/><path class="cls-1" d="M28.56,43.66c-.06-.48-.11-1-.16-1.43l0-.35c-.08-.66-.15-1.33-.23-2L28,39.07a1.46,1.46,0,0,0,.26-.19l0,0a1.27,1.27,0,0,1,.83-.34h.45a3,3,0,0,0,.85-.11c.09.22.18.44.28.65s.26.61.38.91l1,2.4.46,1.09.06.13c-.56-.21-1.12-.42-1.67-.65a1.79,1.79,0,0,0-.75-.18,1.43,1.43,0,0,0-.92.35A7.29,7.29,0,0,1,28.56,43.66Z"/><path d="M17.33,28.56H16.05a.53.53,0,0,1-.46-.53.55.55,0,0,1,.5-.52h3.56a3.09,3.09,0,0,0-.88,1.05Z"/></svg>