<svg xmlns="http://www.w3.org/2000/svg" width="25" height="25" viewBox="0 0 25 25">
  <g id="forth-step-c" transform="translate(-2845 -4957)">
    <rect id="Rectangle_89" data-name="Rectangle 89" width="25" height="25" transform="translate(2845 4957)" fill="#ffe9ab" opacity="0"/>
    <g id="forth-step-c-2" data-name="forth-step-c" transform="translate(2850 4959)">
      <path id="Path_1375" data-name="Path 1375" d="M14.045,4.176s0-.009,0-.014a.421.421,0,0,0-.007-.053h0a.434.434,0,0,0-.014-.052l0-.013A.455.455,0,0,0,14,4v0a.407.407,0,0,0-.029-.046l-.008-.011a.414.414,0,0,0-.036-.042L10.153.122a.428.428,0,0,0-.042-.036L10.1.078a.4.4,0,0,0-.046-.029l0,0A.432.432,0,0,0,10,.027l-.013,0A.428.428,0,0,0,9.939.008h0A.443.443,0,0,0,9.886,0H.417A.417.417,0,0,0,0,.417V18.265a.417.417,0,0,0,.417.417H6.691v2.251a.417.417,0,0,0,.638.353l1.587-1,1.587,1a.417.417,0,0,0,.638-.353V18.682h2.488a.417.417,0,0,0,.417-.417V4.19S14.045,4.181,14.045,4.176Zm-3.77-2.752,2.348,2.35H10.275ZM6.485,12.879a1.277,1.277,0,0,1-.078-.263,1.233,1.233,0,0,1,.215-.156,1.512,1.512,0,0,0,.439-.367,1.5,1.5,0,0,0,.218-.534,1.348,1.348,0,0,1,.077-.242.518.518,0,0,1,.1-.008c.046,0,.1,0,.153.005s.128.006.2.006a1.181,1.181,0,0,0,.381-.054,1.572,1.572,0,0,0,.481-.3,1.068,1.068,0,0,1,.244-.167,1,1,0,0,1,.248.167,1.572,1.572,0,0,0,.481.3,1.18,1.18,0,0,0,.381.054c.068,0,.133,0,.2-.006s.107-.005.153-.005a.511.511,0,0,1,.1.008,1.334,1.334,0,0,1,.077.242,1.5,1.5,0,0,0,.218.534,1.51,1.51,0,0,0,.439.367,1.247,1.247,0,0,1,.215.156,1.286,1.286,0,0,1-.078.263,1.652,1.652,0,0,0-.132.573,1.658,1.658,0,0,0,.132.573,1.276,1.276,0,0,1,.078.263,1.25,1.25,0,0,1-.215.156,1.19,1.19,0,0,0-.657.9,1.354,1.354,0,0,1-.077.242.521.521,0,0,1-.1.008c-.047,0-.1,0-.153-.005s-.128-.006-.2-.006a1.18,1.18,0,0,0-.381.054,1.574,1.574,0,0,0-.481.3,1.038,1.038,0,0,1-.246.167,1.037,1.037,0,0,1-.246-.167,1.577,1.577,0,0,0-.481-.3,1.181,1.181,0,0,0-.381-.054c-.068,0-.133,0-.2.006s-.107.005-.153.005a.52.52,0,0,1-.1-.008,1.348,1.348,0,0,1-.077-.242,1.5,1.5,0,0,0-.218-.534,1.508,1.508,0,0,0-.439-.367,1.245,1.245,0,0,1-.215-.156,1.293,1.293,0,0,1,.078-.263,1.653,1.653,0,0,0,.132-.573A1.656,1.656,0,0,0,6.485,12.879Zm3.823,7.3-1.17-.735a.417.417,0,0,0-.443,0l-1.17.735V16.426l.13-.005c.055,0,.107-.006.154-.006a.408.408,0,0,1,.118.011,1.121,1.121,0,0,1,.222.155,1.227,1.227,0,0,0,.768.352,1.227,1.227,0,0,0,.768-.352,1.116,1.116,0,0,1,.222-.155.41.41,0,0,1,.118-.011c.047,0,.1,0,.154.005l.13.005v3.753Zm.833-2.331V16.09a1.518,1.518,0,0,0,.219-.537,1.075,1.075,0,0,1,.083-.25,1.08,1.08,0,0,1,.212-.155,1.176,1.176,0,0,0,.562-.6,1.205,1.205,0,0,0-.088-.814,1.128,1.128,0,0,1-.081-.286,1.127,1.127,0,0,1,.081-.286,1.206,1.206,0,0,0,.088-.815,1.176,1.176,0,0,0-.562-.6,1.1,1.1,0,0,1-.212-.155,1.08,1.08,0,0,1-.083-.25,1.164,1.164,0,0,0-.39-.708.99.99,0,0,0-.6-.166c-.067,0-.132,0-.2.007s-.107.005-.154.005a.408.408,0,0,1-.118-.011,1.112,1.112,0,0,1-.222-.155,1.228,1.228,0,0,0-.769-.352,1.228,1.228,0,0,0-.768.352,1.118,1.118,0,0,1-.222.155.409.409,0,0,1-.118.011c-.047,0-.1,0-.154-.006s-.128-.006-.2-.006a.988.988,0,0,0-.6.166,1.164,1.164,0,0,0-.39.708,1.084,1.084,0,0,1-.083.25,1.1,1.1,0,0,1-.212.155,1.177,1.177,0,0,0-.562.6,1.206,1.206,0,0,0,.088.815,1.126,1.126,0,0,1,.081.286,1.127,1.127,0,0,1-.081.286,1.206,1.206,0,0,0-.088.815,1.178,1.178,0,0,0,.562.6,1.089,1.089,0,0,1,.212.155,1.084,1.084,0,0,1,.083.25,1.518,1.518,0,0,0,.22.537v1.758H.833V.834H9.441V4.19a.417.417,0,0,0,.417.417h3.354v13.24Z" fill="#febe07" fill-rule="evenodd"/>
      <path id="Path_1376" data-name="Path 1376" d="M3.755,7.02H9.124a.417.417,0,0,0,0-.834H3.755a.417.417,0,0,0,0,.834Z" transform="translate(-1.302 -2.413)" fill="#febe07" fill-rule="evenodd"/>
      <path id="Path_1377" data-name="Path 1377" d="M12.941,9.637H3.755a.417.417,0,0,0,0,.834h9.186a.417.417,0,0,0,0-.834Z" transform="translate(-1.302 -3.758)" fill="#febe07" fill-rule="evenodd"/>
      <path id="Path_1378" data-name="Path 1378" d="M11.274,13.087H3.755a.417.417,0,0,0,0,.834h7.52a.417.417,0,0,0,0-.834Z" transform="translate(-1.302 -5.104)" fill="#febe07" fill-rule="evenodd"/>
      <path id="Path_1379" data-name="Path 1379" d="M18.815,13.087a.417.417,0,1,0,.417.417A.418.418,0,0,0,18.815,13.087Z" transform="translate(-7.176 -5.104)" fill="#febe07" fill-rule="evenodd"/>
    </g>
  </g>
</svg>
