<svg xmlns="http://www.w3.org/2000/svg" width="25" height="25" viewBox="0 0 25 25">
  <g id="forth-step-w" transform="translate(-2845 -4957)">
    <rect id="Rectangle_89" data-name="Rectangle 89" width="25" height="25" transform="translate(2845 4957)" fill="#ffe9ab" opacity="0"/>
    <g id="forth-step-c" transform="translate(2849.569 4958.345)">
      <path id="Path_1375" data-name="Path 1375" d="M14.907,4.432s0-.01,0-.015a.447.447,0,0,0-.007-.057h0a.461.461,0,0,0-.015-.055l0-.013a.483.483,0,0,0-.022-.05v0a.432.432,0,0,0-.031-.049l-.009-.012a.439.439,0,0,0-.038-.045l-4-4a.454.454,0,0,0-.045-.038L10.719.082a.419.419,0,0,0-.048-.03l0,0a.459.459,0,0,0-.049-.022l-.014,0a.454.454,0,0,0-.055-.015h0A.47.47,0,0,0,10.493,0H.442A.442.442,0,0,0,0,.443V19.385a.442.442,0,0,0,.442.443H7.1v2.389a.442.442,0,0,0,.677.375l1.684-1.057,1.684,1.057a.442.442,0,0,0,.677-.375V19.828h2.64a.442.442,0,0,0,.442-.443V4.447C14.907,4.442,14.907,4.437,14.907,4.432Zm-4-2.921L13.4,4H10.905ZM6.883,13.67A1.355,1.355,0,0,1,6.8,13.39a1.309,1.309,0,0,1,.228-.165,1.6,1.6,0,0,0,.466-.389,1.6,1.6,0,0,0,.231-.567,1.431,1.431,0,0,1,.082-.257A.55.55,0,0,1,7.916,12c.049,0,.1,0,.163.006s.136.007.208.007a1.253,1.253,0,0,0,.4-.057,1.668,1.668,0,0,0,.51-.315,1.134,1.134,0,0,1,.259-.178,1.058,1.058,0,0,1,.263.178,1.669,1.669,0,0,0,.511.315,1.252,1.252,0,0,0,.4.057c.072,0,.141,0,.208-.007S10.961,12,11.01,12a.542.542,0,0,1,.11.008,1.416,1.416,0,0,1,.082.257,1.6,1.6,0,0,0,.231.567,1.6,1.6,0,0,0,.466.389,1.323,1.323,0,0,1,.228.165,1.365,1.365,0,0,1-.083.279,1.753,1.753,0,0,0-.14.608,1.759,1.759,0,0,0,.14.608,1.354,1.354,0,0,1,.083.279,1.326,1.326,0,0,1-.228.165,1.263,1.263,0,0,0-.7.956,1.437,1.437,0,0,1-.082.257.553.553,0,0,1-.11.008c-.049,0-.1,0-.163-.006s-.136-.007-.208-.007a1.252,1.252,0,0,0-.4.057,1.671,1.671,0,0,0-.511.315,1.1,1.1,0,0,1-.261.178,1.1,1.1,0,0,1-.261-.178,1.674,1.674,0,0,0-.511-.315,1.253,1.253,0,0,0-.4-.057c-.072,0-.141,0-.208.007s-.113.006-.163.006a.552.552,0,0,1-.109-.008,1.431,1.431,0,0,1-.082-.257,1.593,1.593,0,0,0-.231-.567,1.6,1.6,0,0,0-.466-.389,1.321,1.321,0,0,1-.228-.165,1.373,1.373,0,0,1,.083-.279,1.754,1.754,0,0,0,.14-.608A1.757,1.757,0,0,0,6.883,13.67Zm4.057,7.747L9.7,20.637a.443.443,0,0,0-.47,0l-1.242.78V17.434l.138-.005c.059,0,.114-.006.164-.006a.432.432,0,0,1,.125.012,1.19,1.19,0,0,1,.235.165,1.3,1.3,0,0,0,.815.373,1.3,1.3,0,0,0,.815-.373,1.184,1.184,0,0,1,.235-.165.436.436,0,0,1,.125-.012c.05,0,.105,0,.164.006l.138.005v3.983Zm.885-2.474V17.077a1.611,1.611,0,0,0,.233-.57,1.141,1.141,0,0,1,.088-.265,1.147,1.147,0,0,1,.225-.164,1.248,1.248,0,0,0,.6-.633,1.279,1.279,0,0,0-.093-.864,1.2,1.2,0,0,1-.086-.3,1.2,1.2,0,0,1,.086-.3,1.28,1.28,0,0,0,.093-.865,1.248,1.248,0,0,0-.6-.633,1.164,1.164,0,0,1-.225-.164,1.146,1.146,0,0,1-.088-.265,1.235,1.235,0,0,0-.414-.752,1.05,1.05,0,0,0-.634-.176c-.071,0-.141,0-.207.007s-.114.006-.164.006a.433.433,0,0,1-.125-.012,1.181,1.181,0,0,1-.235-.165,1.3,1.3,0,0,0-.816-.373,1.3,1.3,0,0,0-.815.373,1.186,1.186,0,0,1-.235.165.434.434,0,0,1-.125.012c-.05,0-.105,0-.164-.006s-.136-.007-.207-.007a1.049,1.049,0,0,0-.634.176,1.235,1.235,0,0,0-.414.752,1.151,1.151,0,0,1-.088.265,1.162,1.162,0,0,1-.225.164,1.249,1.249,0,0,0-.6.633,1.28,1.28,0,0,0,.093.865,1.2,1.2,0,0,1,.086.3,1.2,1.2,0,0,1-.086.3,1.28,1.28,0,0,0-.093.865,1.25,1.25,0,0,0,.6.633,1.156,1.156,0,0,1,.225.164,1.15,1.15,0,0,1,.088.265,1.611,1.611,0,0,0,.233.57v1.866H.885V.885h9.136V4.447a.442.442,0,0,0,.442.443h3.56V18.943Z" fill="#fff" fill-rule="evenodd"/>
      <path id="Path_1376" data-name="Path 1376" d="M3.78,7.071h5.7a.443.443,0,0,0,0-.885H3.78a.443.443,0,0,0,0,.885Z" transform="translate(-1.177 -2.181)" fill="#fff" fill-rule="evenodd"/>
      <path id="Path_1377" data-name="Path 1377" d="M13.53,9.637H3.78a.443.443,0,0,0,0,.885h9.75a.443.443,0,0,0,0-.885Z" transform="translate(-1.177 -3.398)" fill="#fff" fill-rule="evenodd"/>
      <path id="Path_1378" data-name="Path 1378" d="M11.761,13.087H3.78a.443.443,0,0,0,0,.885h7.981a.443.443,0,0,0,0-.885Z" transform="translate(-1.177 -4.614)" fill="#fff" fill-rule="evenodd"/>
      <path id="Path_1379" data-name="Path 1379" d="M18.841,13.087a.443.443,0,1,0,.442.443A.443.443,0,0,0,18.841,13.087Z" transform="translate(-6.487 -4.614)" fill="#fff" fill-rule="evenodd"/>
    </g>
  </g>
</svg>
