<svg id="Layer_1" data-name="Layer 1" xmlns="http://www.w3.org/2000/svg" viewBox="0 0 48 48"><defs><style>.cls-1{fill:#ffd500;}.cls-2{fill:none;stroke:#000;stroke-miterlimit:10;}</style></defs><title>SAIB#4279 Customer Experience - Mortgage Icons v2</title><rect class="cls-1" y="-0.21" width="48" height="48.92"/><polygon class="cls-1" points="28.12 5.61 28.45 12.12 35.27 12.53 28.12 5.61"/><path d="M26.44,31.88c.4-.48.77-.94,1.17-1.37a6.12,6.12,0,0,1,1.9-1.45,2.6,2.6,0,0,1,.36-.13.51.51,0,0,1,.2,0,.6.6,0,0,1-.06.19c-.3.32-.62.63-.91,1a16.83,16.83,0,0,0-2,3.06.85.85,0,0,1-.17.25.44.44,0,0,1-.76,0c-.3-.44-.57-.89-.87-1.33a5.53,5.53,0,0,0-1.42-1.35,1.2,1.2,0,0,1-.17-.21,1,1,0,0,1,.27-.09,2.71,2.71,0,0,1,2.19,1.11Z"/><path d="M21.27,36.9H12.5a.5.5,0,0,1-.55-.54c0-.51,0-1,0-1.55V5.58A1.47,1.47,0,0,1,12,5.13a.39.39,0,0,1,.42-.28H28.08a1,1,0,0,1,.75.3L32.89,9l2.9,2.77a.91.91,0,0,1,.26.64c0,.33,0,.65,0,1V36.32a.5.5,0,0,1-.31.54.48.48,0,0,1-.15,0H32.51l-.07-.15-.09-.22q0-.11.09-.24c.05-.12.09-.25.14-.38h1.57a.85.85,0,0,0,.67-.22A.88.88,0,0,0,35,35V15.29c0-.29,0-.59,0-.88s0-.63,0-.94a.75.75,0,0,0-.72-.71H28.48c-.51,0-.67-.16-.67-.67V6.76a.91.91,0,0,0-.2-.69.88.88,0,0,0-.7-.22h-13a.86.86,0,0,0-.71.24.93.93,0,0,0-.2.7V20.6h0V35.05a.76.76,0,0,0,.88.86h7.34c.07.2.16.39.23.55l0,0,0,.07h0C21.4,36.65,21.33,36.77,21.27,36.9Zm7.55-26a.77.77,0,0,0,.83.82h0l3.21,0,1.37,0-5.5-5.28S28.83,10.3,28.82,10.94Z"/><path class="cls-2" d="M26.9,26h-.32a5,5,0,0,0-3.44,1.62,5.12,5.12,0,0,0,.17,7.17,5.11,5.11,0,0,0,3.59,1.46H27a5.12,5.12,0,0,0,3.39-8.9A5,5,0,0,0,26.9,26Z"/><path d="M23.57,23.05,17.1,23a.51.51,0,0,1-.49-.41.45.45,0,0,1,.23-.5,1.1,1.1,0,0,1,.44-.1H30.79a.51.51,0,0,1,.56.33A.49.49,0,0,1,31,23h-5.2l-1,0H23.57Z"/><path d="M30.88,17.76H17.13a.43.43,0,0,1-.47-.29.49.49,0,0,1,0-.47.52.52,0,0,1,.42-.24H30.59a1.64,1.64,0,0,1,.46,0,.51.51,0,0,1,.35.49.51.51,0,0,1-.52.47Z"/><path d="M18.23,28.26H17a.5.5,0,0,1-.43-.49.51.51,0,0,1,.46-.49h3.35a3.05,3.05,0,0,0-.83,1Z"/></svg>