<svg id="Layer_1" data-name="Layer 1" xmlns="http://www.w3.org/2000/svg" viewBox="0 0 48 48"><defs><style>.cls-1{fill:#ffd500;}.cls-2{fill:none;stroke:#1d1d1b;stroke-linecap:round;stroke-linejoin:round;stroke-width:1.18px;}.cls-3{fill:#1d1d1b;stroke:#ffd500;stroke-miterlimit:10;}</style></defs><title>SAIB#4279 Customer Experience - Mortgage Icons v2</title><rect class="cls-1" y="-0.03" width="48" height="48"/><circle class="cls-2" cx="24.65" cy="25.2" r="12.35"/><path class="cls-2" d="M6.16,24.22A18.33,18.33,0,0,1,29.21,7.4"/><path class="cls-2" d="M34.17,40.63A18.33,18.33,0,0,1,6.79,29.82"/><path class="cls-2" d="M34.17,9.53A18.34,18.34,0,0,1,37.42,38"/><polyline class="cls-2" points="27.43 4.6 29.21 7.4 26.15 9.12"/><polyline class="cls-2" points="40.73 37.94 37.42 38.03 37.51 34.52"/><polyline class="cls-2" points="5.21 32.74 6.79 29.82 9.78 31.66"/><circle class="cls-3" cx="30.28" cy="14.64" r="2.6"/><circle class="cls-3" cx="31.81" cy="34.95" r="2.6"/><circle class="cls-3" cx="12.3" cy="26.38" r="2.6"/></svg>