<svg xmlns="http://www.w3.org/2000/svg" width="25" height="25" viewBox="0 0 25 25">
  <g id="second-step-w" transform="translate(-2789 -4957)">
    <rect id="Rectangle_87" data-name="Rectangle 87" width="25" height="25" transform="translate(2789 4957)" fill="#ffe9ab" opacity="0"/>
    <g id="second-step-c" transform="translate(2790 4958)">
      <path id="Path_1380" data-name="Path 1380" d="M24.24,5.241a.447.447,0,0,0,.6-.2.448.448,0,0,0-.2-.6.447.447,0,0,0-.4.8Z" transform="translate(-8.959 -1.521)" fill="#fff"/>
      <path id="Path_1381" data-name="Path 1381" d="M30.668,11.056l.665-1.828a.447.447,0,0,0-.84-.306l-.408,1.121a9.533,9.533,0,0,0-3.06-4.1.453.453,0,0,0-.627.08.448.448,0,0,0,.08.627,8.657,8.657,0,0,1,2.9,4.086l-1.557-.566a.447.447,0,0,0-.558.609.444.444,0,0,0,.252.231l1.246.454a2.456,2.456,0,1,0,1.9-.4Zm-.484,3.974a1.564,1.564,0,1,1,1.564-1.564A1.566,1.566,0,0,1,30.184,15.031Z" transform="translate(-9.759 -2.025)" fill="#fff"/>
      <path id="Path_1382" data-name="Path 1382" d="M14.463,4.916a2.458,2.458,0,1,0-2.41-2.94L10.221,1.31a.446.446,0,0,0-.153-.027.447.447,0,0,0-.153.867l1.121.408a9.538,9.538,0,0,0-4.1,3.059.447.447,0,1,0,.707.547,8.654,8.654,0,0,1,4.086-2.9l-.567,1.557a.46.46,0,0,0,.42.6A.449.449,0,0,0,12,5.123l.455-1.25A2.456,2.456,0,0,0,14.463,4.916Zm0-4.022A1.564,1.564,0,1,1,12.9,2.458,1.566,1.566,0,0,1,14.463.894Z" transform="translate(-3.021)" fill="#fff"/>
      <path id="Path_1383" data-name="Path 1383" d="M5.634,11.485a.447.447,0,1,0-.2-.6A.448.448,0,0,0,5.634,11.485Z" transform="translate(-2.517 -3.683)" fill="#fff"/>
      <path id="Path_1384" data-name="Path 1384" d="M24.643,25.407a.451.451,0,0,0-.627.08,8.657,8.657,0,0,1-4.087,2.9l.567-1.557a.447.447,0,0,0-.267-.573c-.169-.063-.572.021-.572.267L19.2,27.772a2.456,2.456,0,1,0,.4,1.9l1.828.665a.454.454,0,0,0,.573-.267.448.448,0,0,0-.267-.573l-1.121-.408a9.528,9.528,0,0,0,4.1-3.06A.448.448,0,0,0,24.643,25.407ZM17.2,30.753a1.564,1.564,0,1,1,1.564-1.564A1.566,1.566,0,0,1,17.2,30.753Z" transform="translate(-5.755 -8.764)" fill="#fff"/>
      <path id="Path_1385" data-name="Path 1385" d="M30.884,23.048a.447.447,0,1,0,.2.6A.448.448,0,0,0,30.884,23.048Z" transform="translate(-11.121 -7.963)" fill="#fff"/>
      <path id="Path_1386" data-name="Path 1386" d="M7.159,23.022a8.66,8.66,0,0,1-2.9-4.087l1.557.567a.453.453,0,0,0,.573-.267.447.447,0,0,0-.267-.573l-1.248-.454a2.456,2.456,0,1,0-1.9.4L2.3,20.44a.448.448,0,0,0,.267.573.453.453,0,0,0,.573-.267l.408-1.122a9.533,9.533,0,0,0,3.059,4.1.456.456,0,0,0,.627-.079A.447.447,0,0,0,7.159,23.022ZM1.892,16.2a1.564,1.564,0,1,1,1.564,1.564A1.566,1.566,0,0,1,1.892,16.2Z" transform="translate(-0.998 -4.757)" fill="#fff"/>
      <path id="Path_1387" data-name="Path 1387" d="M12.276,29.292a.439.439,0,0,0-.2-.047.447.447,0,0,0-.2.847h0a.439.439,0,0,0,.2.047.447.447,0,0,0,.2-.847Z" transform="translate(-4.679 -10.125)" fill="#fff"/>
    </g>
  </g>
</svg>
