<svg xmlns="http://www.w3.org/2000/svg" width="112" height="56" viewBox="0 0 112 56">
  <g id="seperator1" transform="translate(-2761 -4957)">
    <g id="Group_137" data-name="Group 137">
      <rect id="Rectangle_86" data-name="Rectangle 86" width="28" height="28" transform="translate(2761 4957)" fill="#ffe9ab" opacity="0"/>
      <g id="first-step-c" transform="translate(2764 4959)">
        <path id="Path_1368" data-name="Path 1368" d="M21,17.5l-3.476-9.51V2.425a.452.452,0,0,0-.452-.452H15.329L14.717.3a.453.453,0,0,0-.58-.27L8.814,1.973H2.341a.452.452,0,0,0-.452.452V4.5L.3,5.086a.452.452,0,0,0-.27.58l1.861,5.091v9.982a.452.452,0,0,0,.452.452H5.7l.612,1.676a.452.452,0,0,0,.58.27l5.322-1.945h4.859a.452.452,0,0,0,.452-.452V19.25l3.206-1.172A.452.452,0,0,0,21,17.5ZM1.888,8.121,1.033,5.78l.856-.313ZM14.022,1.033l.344.94H11.45Zm-7.014,21.1-.344-.94H9.581Zm9.615-1.845H2.793V2.878h13.83Zm.9-2V10.625L20,17.384Z" transform="translate(0 0)" fill="#febe07"/>
        <path id="Path_1369" data-name="Path 1369" d="M12.971,17.429a.452.452,0,0,0-.64,0l-1.047,1.047-.648-.265a.452.452,0,0,0-.342.838l.927.379a.452.452,0,0,0,.491-.1l1.26-1.26A.452.452,0,0,0,12.971,17.429Z" transform="translate(-3.996 -6.903)" fill="#febe07"/>
        <path id="Path_1370" data-name="Path 1370" d="M17.777,22.277l-3.1-3.1a.453.453,0,0,0-.64,0l-.366.366-.632-.632a3.654,3.654,0,1,0-.64.64l.632.632-.366.367a.453.453,0,0,0,0,.64l3.1,3.1a.452.452,0,0,0,.64,0l1.373-1.373A.453.453,0,0,0,17.777,22.277Zm-7.616-2.86A2.744,2.744,0,1,1,12.9,16.674,2.747,2.747,0,0,1,10.161,19.418Zm5.923,3.912-2.459-2.46.733-.733,2.459,2.46Z" transform="translate(-2.599 -5.199)" fill="#febe07"/>
        <path id="Path_1371" data-name="Path 1371" d="M23.355,7.579a.469.469,0,0,0-.026-.085.458.458,0,0,0-.042-.078.434.434,0,0,0-.056-.069.461.461,0,0,0-.069-.057.448.448,0,0,0-.078-.042A.457.457,0,0,0,23,7.223a.445.445,0,0,0-.176,0,.473.473,0,0,0-.085.026.456.456,0,0,0-.2.167.456.456,0,0,0-.041.078.438.438,0,0,0-.026.085.436.436,0,0,0,0,.176.421.421,0,0,0,.026.085.444.444,0,0,0,.041.078.458.458,0,0,0,.057.069.432.432,0,0,0,.069.056.462.462,0,0,0,.078.042.474.474,0,0,0,.085.026.434.434,0,0,0,.176,0,.457.457,0,0,0,.085-.026.448.448,0,0,0,.078-.042.441.441,0,0,0,.125-.125.445.445,0,0,0,.042-.078.443.443,0,0,0,.026-.261Z" transform="translate(-8.964 -2.879)" fill="#febe07"/>
        <path id="Path_1372" data-name="Path 1372" d="M15.714,7.215H8.8a.452.452,0,0,0,0,.9h6.914a.452.452,0,1,0,0-.9Z" transform="translate(-3.332 -2.879)" fill="#febe07"/>
        <path id="Path_1373" data-name="Path 1373" d="M9.244,10.334a.455.455,0,0,0-.026-.085.446.446,0,0,0-.042-.078.44.44,0,0,0-.125-.125A.446.446,0,0,0,8.973,10a.425.425,0,0,0-.085-.026A.451.451,0,0,0,8.627,10a.458.458,0,0,0-.078.042.431.431,0,0,0-.069.056.461.461,0,0,0-.057.069.446.446,0,0,0-.042.078.456.456,0,0,0-.026.085.457.457,0,0,0,0,.176.457.457,0,0,0,.026.085.448.448,0,0,0,.042.078.461.461,0,0,0,.057.069.434.434,0,0,0,.069.056.458.458,0,0,0,.078.042.444.444,0,0,0,.085.026.453.453,0,0,0,.089.009.445.445,0,0,0,.088-.009.425.425,0,0,0,.085-.026.446.446,0,0,0,.078-.042.44.44,0,0,0,.125-.125.448.448,0,0,0,.042-.078.457.457,0,0,0,.026-.085.434.434,0,0,0,0-.176Z" transform="translate(-3.332 -3.979)" fill="#febe07"/>
        <path id="Path_1374" data-name="Path 1374" d="M18.319,9.97H11.405a.452.452,0,0,0,0,.9h6.914a.452.452,0,0,0,0-.9Z" transform="translate(-4.371 -3.979)" fill="#febe07"/>
      </g>
    </g>
    <g id="Group_141" data-name="Group 141" transform="translate(0 28)">
      <rect id="Rectangle_86-2" data-name="Rectangle 86" width="28" height="28" transform="translate(2761 4957)" fill="#ffe9ab" opacity="0"/>
      <g id="first-step-c-2" data-name="first-step-c" transform="translate(2764 4959)">
        <path id="Path_1368-2" data-name="Path 1368" d="M21,17.5l-3.476-9.51V2.425a.452.452,0,0,0-.452-.452H15.329L14.717.3a.453.453,0,0,0-.58-.27L8.814,1.973H2.341a.452.452,0,0,0-.452.452V4.5L.3,5.086a.452.452,0,0,0-.27.58l1.861,5.091v9.982a.452.452,0,0,0,.452.452H5.7l.612,1.676a.452.452,0,0,0,.58.27l5.322-1.945h4.859a.452.452,0,0,0,.452-.452V19.25l3.206-1.172A.452.452,0,0,0,21,17.5ZM1.888,8.121,1.033,5.78l.856-.313ZM14.022,1.033l.344.94H11.45Zm-7.014,21.1-.344-.94H9.581Zm9.615-1.845H2.793V2.878h13.83Zm.9-2V10.625L20,17.384Z" transform="translate(0 0)" fill="#fff"/>
        <path id="Path_1369-2" data-name="Path 1369" d="M12.971,17.429a.452.452,0,0,0-.64,0l-1.047,1.047-.648-.265a.452.452,0,0,0-.342.838l.927.379a.452.452,0,0,0,.491-.1l1.26-1.26A.452.452,0,0,0,12.971,17.429Z" transform="translate(-3.996 -6.903)" fill="#fff"/>
        <path id="Path_1370-2" data-name="Path 1370" d="M17.777,22.277l-3.1-3.1a.453.453,0,0,0-.64,0l-.366.366-.632-.632a3.654,3.654,0,1,0-.64.64l.632.632-.366.367a.453.453,0,0,0,0,.64l3.1,3.1a.452.452,0,0,0,.64,0l1.373-1.373A.453.453,0,0,0,17.777,22.277Zm-7.616-2.86A2.744,2.744,0,1,1,12.9,16.674,2.747,2.747,0,0,1,10.161,19.418Zm5.923,3.912-2.459-2.46.733-.733,2.459,2.46Z" transform="translate(-2.599 -5.199)" fill="#fff"/>
        <path id="Path_1371-2" data-name="Path 1371" d="M23.355,7.579a.469.469,0,0,0-.026-.085.458.458,0,0,0-.042-.078.434.434,0,0,0-.056-.069.461.461,0,0,0-.069-.057.448.448,0,0,0-.078-.042A.457.457,0,0,0,23,7.223a.445.445,0,0,0-.176,0,.473.473,0,0,0-.085.026.456.456,0,0,0-.2.167.456.456,0,0,0-.041.078.438.438,0,0,0-.026.085.436.436,0,0,0,0,.176.421.421,0,0,0,.026.085.444.444,0,0,0,.041.078.458.458,0,0,0,.057.069.432.432,0,0,0,.069.056.462.462,0,0,0,.078.042.474.474,0,0,0,.085.026.434.434,0,0,0,.176,0,.457.457,0,0,0,.085-.026.448.448,0,0,0,.078-.042.441.441,0,0,0,.125-.125.445.445,0,0,0,.042-.078.443.443,0,0,0,.026-.261Z" transform="translate(-8.964 -2.879)" fill="#fff"/>
        <path id="Path_1372-2" data-name="Path 1372" d="M15.714,7.215H8.8a.452.452,0,0,0,0,.9h6.914a.452.452,0,1,0,0-.9Z" transform="translate(-3.332 -2.879)" fill="#fff"/>
        <path id="Path_1373-2" data-name="Path 1373" d="M9.244,10.334a.455.455,0,0,0-.026-.085.446.446,0,0,0-.042-.078.44.44,0,0,0-.125-.125A.446.446,0,0,0,8.973,10a.425.425,0,0,0-.085-.026A.451.451,0,0,0,8.627,10a.458.458,0,0,0-.078.042.431.431,0,0,0-.069.056.461.461,0,0,0-.057.069.446.446,0,0,0-.042.078.456.456,0,0,0-.026.085.457.457,0,0,0,0,.176.457.457,0,0,0,.026.085.448.448,0,0,0,.042.078.461.461,0,0,0,.057.069.434.434,0,0,0,.069.056.458.458,0,0,0,.078.042.444.444,0,0,0,.085.026.453.453,0,0,0,.089.009.445.445,0,0,0,.088-.009.425.425,0,0,0,.085-.026.446.446,0,0,0,.078-.042.44.44,0,0,0,.125-.125.448.448,0,0,0,.042-.078.457.457,0,0,0,.026-.085.434.434,0,0,0,0-.176Z" transform="translate(-3.332 -3.979)" fill="#fff"/>
        <path id="Path_1374-2" data-name="Path 1374" d="M18.319,9.97H11.405a.452.452,0,0,0,0,.9h6.914a.452.452,0,0,0,0-.9Z" transform="translate(-4.371 -3.979)" fill="#fff"/>
      </g>
    </g>
    <g id="Group_134" data-name="Group 134">
      <rect id="Rectangle_89" data-name="Rectangle 89" width="28" height="28" transform="translate(2845 4957)" fill="#ffe9ab" opacity="0"/>
      <g id="forth-step-c" transform="translate(2852 4960)">
        <path id="Path_1375" data-name="Path 1375" d="M14.045,4.176s0-.009,0-.014a.421.421,0,0,0-.007-.053h0a.434.434,0,0,0-.014-.052l0-.013A.455.455,0,0,0,14,4v0a.407.407,0,0,0-.029-.046l-.008-.011a.414.414,0,0,0-.036-.042L10.153.122a.428.428,0,0,0-.042-.036L10.1.078a.4.4,0,0,0-.046-.029l0,0A.432.432,0,0,0,10,.027l-.013,0A.428.428,0,0,0,9.939.008h0A.443.443,0,0,0,9.886,0H.417A.417.417,0,0,0,0,.417V18.265a.417.417,0,0,0,.417.417H6.691v2.251a.417.417,0,0,0,.638.353l1.587-1,1.587,1a.417.417,0,0,0,.638-.353V18.682h2.488a.417.417,0,0,0,.417-.417V4.19S14.045,4.181,14.045,4.176Zm-3.77-2.752,2.348,2.35H10.275ZM6.485,12.879a1.277,1.277,0,0,1-.078-.263,1.233,1.233,0,0,1,.215-.156,1.512,1.512,0,0,0,.439-.367,1.5,1.5,0,0,0,.218-.534,1.348,1.348,0,0,1,.077-.242.518.518,0,0,1,.1-.008c.046,0,.1,0,.153.005s.128.006.2.006a1.181,1.181,0,0,0,.381-.054,1.572,1.572,0,0,0,.481-.3,1.068,1.068,0,0,1,.244-.167,1,1,0,0,1,.248.167,1.572,1.572,0,0,0,.481.3,1.18,1.18,0,0,0,.381.054c.068,0,.133,0,.2-.006s.107-.005.153-.005a.511.511,0,0,1,.1.008,1.334,1.334,0,0,1,.077.242,1.5,1.5,0,0,0,.218.534,1.51,1.51,0,0,0,.439.367,1.247,1.247,0,0,1,.215.156,1.286,1.286,0,0,1-.078.263,1.652,1.652,0,0,0-.132.573,1.658,1.658,0,0,0,.132.573,1.276,1.276,0,0,1,.078.263,1.25,1.25,0,0,1-.215.156,1.19,1.19,0,0,0-.657.9,1.354,1.354,0,0,1-.077.242.521.521,0,0,1-.1.008c-.047,0-.1,0-.153-.005s-.128-.006-.2-.006a1.18,1.18,0,0,0-.381.054,1.574,1.574,0,0,0-.481.3,1.038,1.038,0,0,1-.246.167,1.037,1.037,0,0,1-.246-.167,1.577,1.577,0,0,0-.481-.3,1.181,1.181,0,0,0-.381-.054c-.068,0-.133,0-.2.006s-.107.005-.153.005a.52.52,0,0,1-.1-.008,1.348,1.348,0,0,1-.077-.242,1.5,1.5,0,0,0-.218-.534,1.508,1.508,0,0,0-.439-.367,1.245,1.245,0,0,1-.215-.156,1.293,1.293,0,0,1,.078-.263,1.653,1.653,0,0,0,.132-.573A1.656,1.656,0,0,0,6.485,12.879Zm3.823,7.3-1.17-.735a.417.417,0,0,0-.443,0l-1.17.735V16.426l.13-.005c.055,0,.107-.006.154-.006a.408.408,0,0,1,.118.011,1.121,1.121,0,0,1,.222.155,1.227,1.227,0,0,0,.768.352,1.227,1.227,0,0,0,.768-.352,1.116,1.116,0,0,1,.222-.155.41.41,0,0,1,.118-.011c.047,0,.1,0,.154.005l.13.005v3.753Zm.833-2.331V16.09a1.518,1.518,0,0,0,.219-.537,1.075,1.075,0,0,1,.083-.25,1.08,1.08,0,0,1,.212-.155,1.176,1.176,0,0,0,.562-.6,1.205,1.205,0,0,0-.088-.814,1.128,1.128,0,0,1-.081-.286,1.127,1.127,0,0,1,.081-.286,1.206,1.206,0,0,0,.088-.815,1.176,1.176,0,0,0-.562-.6,1.1,1.1,0,0,1-.212-.155,1.08,1.08,0,0,1-.083-.25,1.164,1.164,0,0,0-.39-.708.99.99,0,0,0-.6-.166c-.067,0-.132,0-.2.007s-.107.005-.154.005a.408.408,0,0,1-.118-.011,1.112,1.112,0,0,1-.222-.155,1.228,1.228,0,0,0-.769-.352,1.228,1.228,0,0,0-.768.352,1.118,1.118,0,0,1-.222.155.409.409,0,0,1-.118.011c-.047,0-.1,0-.154-.006s-.128-.006-.2-.006a.988.988,0,0,0-.6.166,1.164,1.164,0,0,0-.39.708,1.084,1.084,0,0,1-.083.25,1.1,1.1,0,0,1-.212.155,1.177,1.177,0,0,0-.562.6,1.206,1.206,0,0,0,.088.815,1.126,1.126,0,0,1,.081.286,1.127,1.127,0,0,1-.081.286,1.206,1.206,0,0,0-.088.815,1.178,1.178,0,0,0,.562.6,1.089,1.089,0,0,1,.212.155,1.084,1.084,0,0,1,.083.25,1.518,1.518,0,0,0,.22.537v1.758H.833V.834H9.441V4.19a.417.417,0,0,0,.417.417h3.354v13.24Z" fill="#febe07" fill-rule="evenodd"/>
        <path id="Path_1376" data-name="Path 1376" d="M3.755,7.02H9.124a.417.417,0,0,0,0-.834H3.755a.417.417,0,0,0,0,.834Z" transform="translate(-1.302 -2.413)" fill="#febe07" fill-rule="evenodd"/>
        <path id="Path_1377" data-name="Path 1377" d="M12.941,9.637H3.755a.417.417,0,0,0,0,.834h9.186a.417.417,0,0,0,0-.834Z" transform="translate(-1.302 -3.758)" fill="#febe07" fill-rule="evenodd"/>
        <path id="Path_1378" data-name="Path 1378" d="M11.274,13.087H3.755a.417.417,0,0,0,0,.834h7.52a.417.417,0,0,0,0-.834Z" transform="translate(-1.302 -5.104)" fill="#febe07" fill-rule="evenodd"/>
        <path id="Path_1379" data-name="Path 1379" d="M18.815,13.087a.417.417,0,1,0,.417.417A.418.418,0,0,0,18.815,13.087Z" transform="translate(-7.176 -5.104)" fill="#febe07" fill-rule="evenodd"/>
      </g>
    </g>
    <g id="Group_138" data-name="Group 138" transform="translate(0 28)">
      <rect id="Rectangle_89-2" data-name="Rectangle 89" width="28" height="28" transform="translate(2845 4957)" fill="#ffe9ab" opacity="0"/>
      <g id="forth-step-c-2" data-name="forth-step-c" transform="translate(2852 4960)">
        <path id="Path_1375-2" data-name="Path 1375" d="M14.045,4.176s0-.009,0-.014a.421.421,0,0,0-.007-.053h0a.434.434,0,0,0-.014-.052l0-.013A.455.455,0,0,0,14,4v0a.407.407,0,0,0-.029-.046l-.008-.011a.414.414,0,0,0-.036-.042L10.153.122a.428.428,0,0,0-.042-.036L10.1.078a.4.4,0,0,0-.046-.029l0,0A.432.432,0,0,0,10,.027l-.013,0A.428.428,0,0,0,9.939.008h0A.443.443,0,0,0,9.886,0H.417A.417.417,0,0,0,0,.417V18.265a.417.417,0,0,0,.417.417H6.691v2.251a.417.417,0,0,0,.638.353l1.587-1,1.587,1a.417.417,0,0,0,.638-.353V18.682h2.488a.417.417,0,0,0,.417-.417V4.19S14.045,4.181,14.045,4.176Zm-3.77-2.752,2.348,2.35H10.275ZM6.485,12.879a1.277,1.277,0,0,1-.078-.263,1.233,1.233,0,0,1,.215-.156,1.512,1.512,0,0,0,.439-.367,1.5,1.5,0,0,0,.218-.534,1.348,1.348,0,0,1,.077-.242.518.518,0,0,1,.1-.008c.046,0,.1,0,.153.005s.128.006.2.006a1.181,1.181,0,0,0,.381-.054,1.572,1.572,0,0,0,.481-.3,1.068,1.068,0,0,1,.244-.167,1,1,0,0,1,.248.167,1.572,1.572,0,0,0,.481.3,1.18,1.18,0,0,0,.381.054c.068,0,.133,0,.2-.006s.107-.005.153-.005a.511.511,0,0,1,.1.008,1.334,1.334,0,0,1,.077.242,1.5,1.5,0,0,0,.218.534,1.51,1.51,0,0,0,.439.367,1.247,1.247,0,0,1,.215.156,1.286,1.286,0,0,1-.078.263,1.652,1.652,0,0,0-.132.573,1.658,1.658,0,0,0,.132.573,1.276,1.276,0,0,1,.078.263,1.25,1.25,0,0,1-.215.156,1.19,1.19,0,0,0-.657.9,1.354,1.354,0,0,1-.077.242.521.521,0,0,1-.1.008c-.047,0-.1,0-.153-.005s-.128-.006-.2-.006a1.18,1.18,0,0,0-.381.054,1.574,1.574,0,0,0-.481.3,1.038,1.038,0,0,1-.246.167,1.037,1.037,0,0,1-.246-.167,1.577,1.577,0,0,0-.481-.3,1.181,1.181,0,0,0-.381-.054c-.068,0-.133,0-.2.006s-.107.005-.153.005a.52.52,0,0,1-.1-.008,1.348,1.348,0,0,1-.077-.242,1.5,1.5,0,0,0-.218-.534,1.508,1.508,0,0,0-.439-.367,1.245,1.245,0,0,1-.215-.156,1.293,1.293,0,0,1,.078-.263,1.653,1.653,0,0,0,.132-.573A1.656,1.656,0,0,0,6.485,12.879Zm3.823,7.3-1.17-.735a.417.417,0,0,0-.443,0l-1.17.735V16.426l.13-.005c.055,0,.107-.006.154-.006a.408.408,0,0,1,.118.011,1.121,1.121,0,0,1,.222.155,1.227,1.227,0,0,0,.768.352,1.227,1.227,0,0,0,.768-.352,1.116,1.116,0,0,1,.222-.155.41.41,0,0,1,.118-.011c.047,0,.1,0,.154.005l.13.005v3.753Zm.833-2.331V16.09a1.518,1.518,0,0,0,.219-.537,1.075,1.075,0,0,1,.083-.25,1.08,1.08,0,0,1,.212-.155,1.176,1.176,0,0,0,.562-.6,1.205,1.205,0,0,0-.088-.814,1.128,1.128,0,0,1-.081-.286,1.127,1.127,0,0,1,.081-.286,1.206,1.206,0,0,0,.088-.815,1.176,1.176,0,0,0-.562-.6,1.1,1.1,0,0,1-.212-.155,1.08,1.08,0,0,1-.083-.25,1.164,1.164,0,0,0-.39-.708.99.99,0,0,0-.6-.166c-.067,0-.132,0-.2.007s-.107.005-.154.005a.408.408,0,0,1-.118-.011,1.112,1.112,0,0,1-.222-.155,1.228,1.228,0,0,0-.769-.352,1.228,1.228,0,0,0-.768.352,1.118,1.118,0,0,1-.222.155.409.409,0,0,1-.118.011c-.047,0-.1,0-.154-.006s-.128-.006-.2-.006a.988.988,0,0,0-.6.166,1.164,1.164,0,0,0-.39.708,1.084,1.084,0,0,1-.083.25,1.1,1.1,0,0,1-.212.155,1.177,1.177,0,0,0-.562.6,1.206,1.206,0,0,0,.088.815,1.126,1.126,0,0,1,.081.286,1.127,1.127,0,0,1-.081.286,1.206,1.206,0,0,0-.088.815,1.178,1.178,0,0,0,.562.6,1.089,1.089,0,0,1,.212.155,1.084,1.084,0,0,1,.083.25,1.518,1.518,0,0,0,.22.537v1.758H.833V.834H9.441V4.19a.417.417,0,0,0,.417.417h3.354v13.24Z" fill="#fff" fill-rule="evenodd"/>
        <path id="Path_1376-2" data-name="Path 1376" d="M3.755,7.02H9.124a.417.417,0,0,0,0-.834H3.755a.417.417,0,0,0,0,.834Z" transform="translate(-1.302 -2.413)" fill="#fff" fill-rule="evenodd"/>
        <path id="Path_1377-2" data-name="Path 1377" d="M12.941,9.637H3.755a.417.417,0,0,0,0,.834h9.186a.417.417,0,0,0,0-.834Z" transform="translate(-1.302 -3.758)" fill="#fff" fill-rule="evenodd"/>
        <path id="Path_1378-2" data-name="Path 1378" d="M11.274,13.087H3.755a.417.417,0,0,0,0,.834h7.52a.417.417,0,0,0,0-.834Z" transform="translate(-1.302 -5.104)" fill="#fff" fill-rule="evenodd"/>
        <path id="Path_1379-2" data-name="Path 1379" d="M18.815,13.087a.417.417,0,1,0,.417.417A.418.418,0,0,0,18.815,13.087Z" transform="translate(-7.176 -5.104)" fill="#fff" fill-rule="evenodd"/>
      </g>
    </g>
    <g id="Group_136" data-name="Group 136">
      <rect id="Rectangle_87" data-name="Rectangle 87" width="28" height="28" transform="translate(2789 4957)" fill="#ffe9ab" opacity="0"/>
      <g id="second-step-c" transform="translate(2792 4960)">
        <path id="Path_1380" data-name="Path 1380" d="M24.24,5.241a.447.447,0,0,0,.6-.2.448.448,0,0,0-.2-.6.447.447,0,0,0-.4.8Z" transform="translate(-8.959 -1.521)" fill="#febe07"/>
        <path id="Path_1381" data-name="Path 1381" d="M30.668,11.056l.665-1.828a.447.447,0,0,0-.84-.306l-.408,1.121a9.533,9.533,0,0,0-3.06-4.1.453.453,0,0,0-.627.08.448.448,0,0,0,.08.627,8.657,8.657,0,0,1,2.9,4.086l-1.557-.566a.447.447,0,0,0-.558.609.444.444,0,0,0,.252.231l1.246.454a2.456,2.456,0,1,0,1.9-.4Zm-.484,3.974a1.564,1.564,0,1,1,1.564-1.564A1.566,1.566,0,0,1,30.184,15.031Z" transform="translate(-9.759 -2.025)" fill="#febe07"/>
        <path id="Path_1382" data-name="Path 1382" d="M14.463,4.916a2.458,2.458,0,1,0-2.41-2.94L10.221,1.31a.446.446,0,0,0-.153-.027.447.447,0,0,0-.153.867l1.121.408a9.538,9.538,0,0,0-4.1,3.059.447.447,0,1,0,.707.547,8.654,8.654,0,0,1,4.086-2.9l-.567,1.557a.46.46,0,0,0,.42.6A.449.449,0,0,0,12,5.123l.455-1.25A2.456,2.456,0,0,0,14.463,4.916Zm0-4.022A1.564,1.564,0,1,1,12.9,2.458,1.566,1.566,0,0,1,14.463.894Z" transform="translate(-3.021)" fill="#febe07"/>
        <path id="Path_1383" data-name="Path 1383" d="M5.634,11.485a.447.447,0,1,0-.2-.6A.448.448,0,0,0,5.634,11.485Z" transform="translate(-2.517 -3.683)" fill="#febe07"/>
        <path id="Path_1384" data-name="Path 1384" d="M24.643,25.407a.451.451,0,0,0-.627.08,8.657,8.657,0,0,1-4.087,2.9l.567-1.557a.447.447,0,0,0-.267-.573c-.169-.063-.572.021-.572.267L19.2,27.772a2.456,2.456,0,1,0,.4,1.9l1.828.665a.454.454,0,0,0,.573-.267.448.448,0,0,0-.267-.573l-1.121-.408a9.528,9.528,0,0,0,4.1-3.06A.448.448,0,0,0,24.643,25.407ZM17.2,30.753a1.564,1.564,0,1,1,1.564-1.564A1.566,1.566,0,0,1,17.2,30.753Z" transform="translate(-5.755 -8.764)" fill="#febe07"/>
        <path id="Path_1385" data-name="Path 1385" d="M30.884,23.048a.447.447,0,1,0,.2.6A.448.448,0,0,0,30.884,23.048Z" transform="translate(-11.121 -7.963)" fill="#febe07"/>
        <path id="Path_1386" data-name="Path 1386" d="M7.159,23.022a8.66,8.66,0,0,1-2.9-4.087l1.557.567a.453.453,0,0,0,.573-.267.447.447,0,0,0-.267-.573l-1.248-.454a2.456,2.456,0,1,0-1.9.4L2.3,20.44a.448.448,0,0,0,.267.573.453.453,0,0,0,.573-.267l.408-1.122a9.533,9.533,0,0,0,3.059,4.1.456.456,0,0,0,.627-.079A.447.447,0,0,0,7.159,23.022ZM1.892,16.2a1.564,1.564,0,1,1,1.564,1.564A1.566,1.566,0,0,1,1.892,16.2Z" transform="translate(-0.998 -4.757)" fill="#febe07"/>
        <path id="Path_1387" data-name="Path 1387" d="M12.276,29.292a.439.439,0,0,0-.2-.047.447.447,0,0,0-.2.847h0a.439.439,0,0,0,.2.047.447.447,0,0,0,.2-.847Z" transform="translate(-4.679 -10.125)" fill="#febe07"/>
      </g>
    </g>
    <g id="Group_139" data-name="Group 139" transform="translate(0 28)">
      <rect id="Rectangle_87-2" data-name="Rectangle 87" width="28" height="28" transform="translate(2789 4957)" fill="#ffe9ab" opacity="0"/>
      <g id="second-step-c-2" data-name="second-step-c" transform="translate(2792 4960)">
        <path id="Path_1380-2" data-name="Path 1380" d="M24.24,5.241a.447.447,0,0,0,.6-.2.448.448,0,0,0-.2-.6.447.447,0,0,0-.4.8Z" transform="translate(-8.959 -1.521)" fill="#fff"/>
        <path id="Path_1381-2" data-name="Path 1381" d="M30.668,11.056l.665-1.828a.447.447,0,0,0-.84-.306l-.408,1.121a9.533,9.533,0,0,0-3.06-4.1.453.453,0,0,0-.627.08.448.448,0,0,0,.08.627,8.657,8.657,0,0,1,2.9,4.086l-1.557-.566a.447.447,0,0,0-.558.609.444.444,0,0,0,.252.231l1.246.454a2.456,2.456,0,1,0,1.9-.4Zm-.484,3.974a1.564,1.564,0,1,1,1.564-1.564A1.566,1.566,0,0,1,30.184,15.031Z" transform="translate(-9.759 -2.025)" fill="#fff"/>
        <path id="Path_1382-2" data-name="Path 1382" d="M14.463,4.916a2.458,2.458,0,1,0-2.41-2.94L10.221,1.31a.446.446,0,0,0-.153-.027.447.447,0,0,0-.153.867l1.121.408a9.538,9.538,0,0,0-4.1,3.059.447.447,0,1,0,.707.547,8.654,8.654,0,0,1,4.086-2.9l-.567,1.557a.46.46,0,0,0,.42.6A.449.449,0,0,0,12,5.123l.455-1.25A2.456,2.456,0,0,0,14.463,4.916Zm0-4.022A1.564,1.564,0,1,1,12.9,2.458,1.566,1.566,0,0,1,14.463.894Z" transform="translate(-3.021)" fill="#fff"/>
        <path id="Path_1383-2" data-name="Path 1383" d="M5.634,11.485a.447.447,0,1,0-.2-.6A.448.448,0,0,0,5.634,11.485Z" transform="translate(-2.517 -3.683)" fill="#fff"/>
        <path id="Path_1384-2" data-name="Path 1384" d="M24.643,25.407a.451.451,0,0,0-.627.08,8.657,8.657,0,0,1-4.087,2.9l.567-1.557a.447.447,0,0,0-.267-.573c-.169-.063-.572.021-.572.267L19.2,27.772a2.456,2.456,0,1,0,.4,1.9l1.828.665a.454.454,0,0,0,.573-.267.448.448,0,0,0-.267-.573l-1.121-.408a9.528,9.528,0,0,0,4.1-3.06A.448.448,0,0,0,24.643,25.407ZM17.2,30.753a1.564,1.564,0,1,1,1.564-1.564A1.566,1.566,0,0,1,17.2,30.753Z" transform="translate(-5.755 -8.764)" fill="#fff"/>
        <path id="Path_1385-2" data-name="Path 1385" d="M30.884,23.048a.447.447,0,1,0,.2.6A.448.448,0,0,0,30.884,23.048Z" transform="translate(-11.121 -7.963)" fill="#fff"/>
        <path id="Path_1386-2" data-name="Path 1386" d="M7.159,23.022a8.66,8.66,0,0,1-2.9-4.087l1.557.567a.453.453,0,0,0,.573-.267.447.447,0,0,0-.267-.573l-1.248-.454a2.456,2.456,0,1,0-1.9.4L2.3,20.44a.448.448,0,0,0,.267.573.453.453,0,0,0,.573-.267l.408-1.122a9.533,9.533,0,0,0,3.059,4.1.456.456,0,0,0,.627-.079A.447.447,0,0,0,7.159,23.022ZM1.892,16.2a1.564,1.564,0,1,1,1.564,1.564A1.566,1.566,0,0,1,1.892,16.2Z" transform="translate(-0.998 -4.757)" fill="#fff"/>
        <path id="Path_1387-2" data-name="Path 1387" d="M12.276,29.292a.439.439,0,0,0-.2-.047.447.447,0,0,0-.2.847h0a.439.439,0,0,0,.2.047.447.447,0,0,0,.2-.847Z" transform="translate(-4.679 -10.125)" fill="#fff"/>
      </g>
    </g>
    <g id="Group_135" data-name="Group 135">
      <rect id="Rectangle_88" data-name="Rectangle 88" width="28" height="28" transform="translate(2817 4957)" fill="#ffe9ab" opacity="0"/>
      <g id="third-step-c" transform="translate(2822 4959)">
        <path id="Path_1388" data-name="Path 1388" d="M21,17.5l-3.476-9.51V2.425a.452.452,0,0,0-.452-.452H15.329L14.717.3a.453.453,0,0,0-.58-.27L8.814,1.973H2.341a.452.452,0,0,0-.452.452V4.5L.3,5.086a.452.452,0,0,0-.27.58l1.861,5.091v9.982a.452.452,0,0,0,.452.452H5.7l.612,1.676a.452.452,0,0,0,.58.27l5.322-1.945h4.859a.452.452,0,0,0,.452-.452V19.25l3.206-1.172A.452.452,0,0,0,21,17.5ZM1.888,8.121,1.033,5.78l.856-.313ZM14.022,1.033l.344.94H11.45Zm-7.014,21.1-.344-.94H9.581Zm9.615-1.845H2.793V2.878h13.83Zm.9-2V10.625L20,17.384Z" transform="translate(-2 0)" fill="#febe07"/>
        <path id="Path_1389" data-name="Path 1389" d="M12.971,17.429a.452.452,0,0,0-.64,0l-1.047,1.047-.648-.265a.452.452,0,0,0-.342.838l.927.379a.452.452,0,0,0,.491-.1l1.26-1.26A.452.452,0,0,0,12.971,17.429Z" transform="translate(-4.202 -6.903)" fill="#febe07"/>
        <path id="Path_1390" data-name="Path 1390" d="M17.777,22.277l-3.1-3.1a.453.453,0,0,0-.64,0l-.366.366-.632-.632a3.654,3.654,0,1,0-.64.64l.632.632-.366.367a.453.453,0,0,0,0,.64l3.1,3.1a.452.452,0,0,0,.64,0l1.373-1.373A.453.453,0,0,0,17.777,22.277Zm-7.616-2.86A2.744,2.744,0,1,1,12.9,16.674,2.747,2.747,0,0,1,10.161,19.418Zm5.923,3.912-2.459-2.46.733-.733,2.459,2.46Z" transform="translate(-2.805 -5.199)" fill="#febe07"/>
        <path id="Path_1391" data-name="Path 1391" d="M23.355,7.579a.469.469,0,0,0-.026-.085.458.458,0,0,0-.042-.078.434.434,0,0,0-.056-.069.461.461,0,0,0-.069-.057.448.448,0,0,0-.078-.042A.457.457,0,0,0,23,7.223a.445.445,0,0,0-.176,0,.473.473,0,0,0-.085.026.456.456,0,0,0-.2.167.456.456,0,0,0-.041.078.438.438,0,0,0-.026.085.436.436,0,0,0,0,.176.421.421,0,0,0,.026.085.444.444,0,0,0,.041.078.458.458,0,0,0,.057.069.432.432,0,0,0,.069.056.462.462,0,0,0,.078.042.474.474,0,0,0,.085.026.434.434,0,0,0,.176,0,.457.457,0,0,0,.085-.026.448.448,0,0,0,.078-.042.441.441,0,0,0,.125-.125.445.445,0,0,0,.042-.078.443.443,0,0,0,.026-.261Z" transform="translate(-9.17 -2.879)" fill="#febe07"/>
        <path id="Path_1392" data-name="Path 1392" d="M15.714,7.215H8.8a.452.452,0,0,0,0,.9h6.914a.452.452,0,1,0,0-.9Z" transform="translate(-3.538 -2.879)" fill="#febe07"/>
        <path id="Path_1393" data-name="Path 1393" d="M9.244,10.334a.455.455,0,0,0-.026-.085.446.446,0,0,0-.042-.078.44.44,0,0,0-.125-.125A.446.446,0,0,0,8.973,10a.425.425,0,0,0-.085-.026A.451.451,0,0,0,8.627,10a.458.458,0,0,0-.078.042.431.431,0,0,0-.069.056.461.461,0,0,0-.057.069.446.446,0,0,0-.042.078.456.456,0,0,0-.026.085.457.457,0,0,0,0,.176.457.457,0,0,0,.026.085.448.448,0,0,0,.042.078.461.461,0,0,0,.057.069.434.434,0,0,0,.069.056.458.458,0,0,0,.078.042.444.444,0,0,0,.085.026.453.453,0,0,0,.089.009.445.445,0,0,0,.088-.009.425.425,0,0,0,.085-.026.446.446,0,0,0,.078-.042.44.44,0,0,0,.125-.125.448.448,0,0,0,.042-.078.457.457,0,0,0,.026-.085.434.434,0,0,0,0-.176Z" transform="translate(-3.538 -3.979)" fill="#febe07"/>
        <path id="Path_1394" data-name="Path 1394" d="M18.319,9.97H11.405a.452.452,0,0,0,0,.9h6.914a.452.452,0,0,0,0-.9Z" transform="translate(-4.577 -3.979)" fill="#febe07"/>
      </g>
    </g>
    <g id="Group_140" data-name="Group 140" transform="translate(0 28)">
      <rect id="Rectangle_88-2" data-name="Rectangle 88" width="28" height="28" transform="translate(2817 4957)" fill="#ffe9ab" opacity="0"/>
      <g id="third-step-c-2" data-name="third-step-c" transform="translate(2822 4959)">
        <path id="Path_1388-2" data-name="Path 1388" d="M21,17.5l-3.476-9.51V2.425a.452.452,0,0,0-.452-.452H15.329L14.717.3a.453.453,0,0,0-.58-.27L8.814,1.973H2.341a.452.452,0,0,0-.452.452V4.5L.3,5.086a.452.452,0,0,0-.27.58l1.861,5.091v9.982a.452.452,0,0,0,.452.452H5.7l.612,1.676a.452.452,0,0,0,.58.27l5.322-1.945h4.859a.452.452,0,0,0,.452-.452V19.25l3.206-1.172A.452.452,0,0,0,21,17.5ZM1.888,8.121,1.033,5.78l.856-.313ZM14.022,1.033l.344.94H11.45Zm-7.014,21.1-.344-.94H9.581Zm9.615-1.845H2.793V2.878h13.83Zm.9-2V10.625L20,17.384Z" transform="translate(-2 0)" fill="#fff"/>
        <path id="Path_1389-2" data-name="Path 1389" d="M12.971,17.429a.452.452,0,0,0-.64,0l-1.047,1.047-.648-.265a.452.452,0,0,0-.342.838l.927.379a.452.452,0,0,0,.491-.1l1.26-1.26A.452.452,0,0,0,12.971,17.429Z" transform="translate(-4.202 -6.903)" fill="#fff"/>
        <path id="Path_1390-2" data-name="Path 1390" d="M17.777,22.277l-3.1-3.1a.453.453,0,0,0-.64,0l-.366.366-.632-.632a3.654,3.654,0,1,0-.64.64l.632.632-.366.367a.453.453,0,0,0,0,.64l3.1,3.1a.452.452,0,0,0,.64,0l1.373-1.373A.453.453,0,0,0,17.777,22.277Zm-7.616-2.86A2.744,2.744,0,1,1,12.9,16.674,2.747,2.747,0,0,1,10.161,19.418Zm5.923,3.912-2.459-2.46.733-.733,2.459,2.46Z" transform="translate(-2.805 -5.199)" fill="#fff"/>
        <path id="Path_1391-2" data-name="Path 1391" d="M23.355,7.579a.469.469,0,0,0-.026-.085.458.458,0,0,0-.042-.078.434.434,0,0,0-.056-.069.461.461,0,0,0-.069-.057.448.448,0,0,0-.078-.042A.457.457,0,0,0,23,7.223a.445.445,0,0,0-.176,0,.473.473,0,0,0-.085.026.456.456,0,0,0-.2.167.456.456,0,0,0-.041.078.438.438,0,0,0-.026.085.436.436,0,0,0,0,.176.421.421,0,0,0,.026.085.444.444,0,0,0,.041.078.458.458,0,0,0,.057.069.432.432,0,0,0,.069.056.462.462,0,0,0,.078.042.474.474,0,0,0,.085.026.434.434,0,0,0,.176,0,.457.457,0,0,0,.085-.026.448.448,0,0,0,.078-.042.441.441,0,0,0,.125-.125.445.445,0,0,0,.042-.078.443.443,0,0,0,.026-.261Z" transform="translate(-9.17 -2.879)" fill="#fff"/>
        <path id="Path_1392-2" data-name="Path 1392" d="M15.714,7.215H8.8a.452.452,0,0,0,0,.9h6.914a.452.452,0,1,0,0-.9Z" transform="translate(-3.538 -2.879)" fill="#fff"/>
        <path id="Path_1393-2" data-name="Path 1393" d="M9.244,10.334a.455.455,0,0,0-.026-.085.446.446,0,0,0-.042-.078.44.44,0,0,0-.125-.125A.446.446,0,0,0,8.973,10a.425.425,0,0,0-.085-.026A.451.451,0,0,0,8.627,10a.458.458,0,0,0-.078.042.431.431,0,0,0-.069.056.461.461,0,0,0-.057.069.446.446,0,0,0-.042.078.456.456,0,0,0-.026.085.457.457,0,0,0,0,.176.457.457,0,0,0,.026.085.448.448,0,0,0,.042.078.461.461,0,0,0,.057.069.434.434,0,0,0,.069.056.458.458,0,0,0,.078.042.444.444,0,0,0,.085.026.453.453,0,0,0,.089.009.445.445,0,0,0,.088-.009.425.425,0,0,0,.085-.026.446.446,0,0,0,.078-.042.44.44,0,0,0,.125-.125.448.448,0,0,0,.042-.078.457.457,0,0,0,.026-.085.434.434,0,0,0,0-.176Z" transform="translate(-3.538 -3.979)" fill="#fff"/>
        <path id="Path_1394-2" data-name="Path 1394" d="M18.319,9.97H11.405a.452.452,0,0,0,0,.9h6.914a.452.452,0,0,0,0-.9Z" transform="translate(-4.577 -3.979)" fill="#fff"/>
      </g>
    </g>
  </g>
</svg>
