<svg id="Layer_1" data-name="Layer 1" xmlns="http://www.w3.org/2000/svg" viewBox="0 0 48 48"><defs><style>.cls-1{fill:#ffd500;}</style></defs><title>SAIB#4279 Customer Experience - Mortgage Icons v2</title><circle class="cls-1" cx="34.44" cy="35.94" r="5.81"/><path d="M27.75,37.6c0-.24-.16-.25-.35-.25H12.61c-1.59,0-3.18,0-4.77,0A.76.76,0,0,1,7,36.54a16.86,16.86,0,0,1,.34-2.92A14.09,14.09,0,0,1,9,29.41a13.94,13.94,0,0,1,3.06-3.57,13.72,13.72,0,0,1,3.27-2.05c.59-.25,1.2-.47,1.82-.71-3.56-2-5.32-5.08-4.88-9.22a8.42,8.42,0,0,1,3.1-5.65,8.88,8.88,0,0,1,11.94.43,8.59,8.59,0,0,1,2.6,7.82,8.81,8.81,0,0,1-4.86,6.6c.6.23,1.16.44,1.71.67a13.16,13.16,0,0,1,3.25,2,13.06,13.06,0,0,1,2.87,3.2.74.74,0,0,0,.85.39l-2.4,2.07L29.5,33.48l-1.33,3.18-.42.94M8.51,35.93h18.8c.23,0,.3-.07.34-.29a10.62,10.62,0,0,1,.3-1.59,6.61,6.61,0,0,1,2.77-3.67c.34-.23.71-.42,1.07-.62A12.66,12.66,0,0,0,8.51,35.93ZM13.65,15a7.49,7.49,0,1,0,7.48-7.48A7.49,7.49,0,0,0,13.65,15Z"/><path d="M33.31,37.2l3.51-3.5a.76.76,0,0,1,.77-.26.7.7,0,0,1,.53.55.77.77,0,0,1-.26.71l-3.5,3.51-.53.52a.68.68,0,0,1-1,0c-.55-.54-1.09-1.08-1.63-1.63a.69.69,0,0,1,0-1,.72.72,0,0,1,1,0Z"/><path d="M41.5,36a6.53,6.53,0,0,1-.19,1.59A6.94,6.94,0,0,1,40,40.29c-.06.07,0,.11,0,.18l4.22,4.24.87.88a.74.74,0,0,1,.16.87.78.78,0,0,1-.75.4.75.75,0,0,1-.46-.25l-.83-.85-1.72-1.71L39.8,42.32,39,41.5c-.06-.06-.1-.06-.17,0a6.5,6.5,0,0,1-1.63.95,7,7,0,0,1-1.35.4,6.73,6.73,0,0,1-1.41.13,7,7,0,0,1-1.52-.2A6.8,6.8,0,0,1,30,41.31a6.59,6.59,0,0,1-1.63-2,8.16,8.16,0,0,1-.36-.8,9.59,9.59,0,0,1-.32-1,6.88,6.88,0,0,1-.13-1.81,6.52,6.52,0,0,1,.25-1.52,6.72,6.72,0,0,1,.76-1.71,6.84,6.84,0,0,1,1.87-2A6.2,6.2,0,0,1,32,29.53a8.11,8.11,0,0,1,1.06-.33,6.87,6.87,0,0,1,2.17-.12,6.9,6.9,0,0,1,3.53,1.4,7,7,0,0,1,1.9,2.24,6,6,0,0,1,.61,1.58c.06.29.13.57.17.85S41.48,35.73,41.5,36Zm-7,5.49a5.49,5.49,0,0,0,0-11,5.27,5.27,0,0,0-3.92,1.6,5.58,5.58,0,0,0-1.45,5.37,6.25,6.25,0,0,0,1.41,2.36A5.43,5.43,0,0,0,34.52,41.5Z"/></svg>